<svg xmlns="http://www.w3.org/2000/svg" width="997" height="395" fill="none"><g clip-path="url(#a)"><path fill="#000" d="M394.9.8h-93.4v93.4h93.4V.8Z"/><path fill="#5218FA" d="M495.201 101h-93.4v93.4h93.4V101Z"/><path fill="#F4F1EB" d="M337.099 27.8c-4.8 0-8.7 3.9-8.7 8.7v8.7h-8.7v-8.7c0-3.2.8-6.1 2.3-8.7 1.5-2.6 3.7-4.8 6.3-6.3 2.5-1.5 5.5-2.3 8.7-2.3h8.7v8.7l-8.6-.1Z"/><path fill="#FF003D" d="M193.9.8h-93.4v93.4h93.4V.8Z"/><path fill="#fff" d="M147.199 85.102c-5.1 0-9.8-2-13.4-5.6-3.6-3.6-5.6-8.3-5.6-13.4s2-9.8 5.6-13.4c3.6-3.6 8.3-5.6 13.4-5.6s9.8 2 13.4 5.6c3.6 3.6 5.6 8.3 5.6 13.4s-2 9.8-5.6 13.4c-3.5 3.6-8.3 5.6-13.4 5.6Zm0-37.1c-10 0-18.1 8.1-18.1 18.1 0 10 8.1 18.1 18.1 18.1 10 0 18.1-8.1 18.1-18.1 0-10-8.1-18.1-18.1-18.1Z"/><path fill="#fff" d="M147.201 85.1c-5.1 0-10-1-14.6-2.9-4.5-1.9-8.5-4.6-11.9-8-3.4-3.4-6.2-7.5-8-11.9-2-4.6-2.9-9.5-2.9-14.6s1-10 2.9-14.6c1.9-4.5 4.6-8.5 8-11.9 3.4-3.4 7.5-6.2 11.9-8 4.6-2 9.5-2.9 14.6-2.9s10 1 14.6 2.9c4.5 1.9 8.5 4.6 11.9 8 3.4 3.4 6.2 7.5 8 11.9 2 4.6 2.9 9.5 2.9 14.6s-1 10-2.9 14.6c-1.9 4.5-4.6 8.5-8 11.9-3.4 3.4-7.5 6.2-11.9 8-4.6 1.9-9.5 2.9-14.6 2.9Zm0-74.2c-20.2 0-36.7 16.5-36.7 36.7 0 20.2 16.5 36.7 36.7 36.7 20.2 0 36.7-16.5 36.7-36.7 0-20.3-16.4-36.7-36.7-36.7Z"/><path fill="#5218FA" d="M147.2 85.601c-7.7 0-14.9-3-20.3-8.4s-8.4-12.6-8.4-20.3c0-7.7 3-14.9 8.4-20.3s12.6-8.4 20.3-8.4c7.7 0 14.9 3 20.3 8.4 5.5 5.4 8.5 12.6 8.5 20.3 0 7.7-3 14.9-8.4 20.3-5.5 5.4-12.7 8.4-20.4 8.4Zm0-56.5c-7.4 0-14.4 2.9-19.6 8.1-5.2 5.2-8.1 12.2-8.1 19.6 0 7.4 2.9 14.4 8.1 19.6 5.2 5.2 12.2 8.1 19.6 8.1 7.4 0 14.4-2.9 19.6-8.1 5.2-5.2 8.1-12.2 8.1-19.6 0-7.4-2.9-14.4-8.1-19.6-5.2-5.2-12.1-8.1-19.6-8.1Z"/><path fill="#5218FA" d="M147.2 85.101c5.357 0 9.7-4.343 9.7-9.7 0-5.357-4.343-9.7-9.7-9.7-5.357 0-9.7 4.343-9.7 9.7 0 5.357 4.343 9.7 9.7 9.7ZM294.4.8H201v93.4h93.4V.8Z"/><path fill="#FF003D" d="M260.9 54.8 247.1 41l13.8-13.8L274.7 41l-13.8 13.8ZM248.4 41l12.5 12.5L273.3 41l-12.5-12.5L248.4 41Z"/><path fill="#FF003D" d="m247.705 67.244 13.152-13.152-13.152-13.152-13.152 13.152 13.152 13.152Z"/><path fill="#FF003D" d="m247.7 68-13.8-13.8 13.8-13.8 13.8 13.8L247.7 68Zm-12.5-13.9 12.5 12.5 12.5-12.5-12.5-12.5-12.5 12.5Z"/><path fill="#FF003D" d="m234.601 54.8-13.8-13.8 13.8-13.8 13.8 13.8-13.8 13.8Zm-12.5-13.8 12.5 12.5 12.5-12.5-12.5-12.5-12.5 12.5Z"/><path fill="#fff" d="m444.099 155.8-.1-.3h-.3l-.3.5-4.1 7.1-.1.3.1.3 4 6.9.1.2.3.5h.3l.1-.3 4.4-7.6-4.4-7.6Zm-.2 14.6-.1-.2-4-6.9 4-6.9.1-.2 4.1 7.1-4.1 7.1Z"/><path fill="#fff" d="m443.9 170.4-.1-.2-4-6.9-.1-.3h-9l-.1.3.1.3 4.4 7.6h9l.1-.3-.3-.5Zm-8.6.3-4.1-7.1h8.1l4 6.9.1.2h-8.1Z"/><path fill="#fff" d="M444 155.6h-9l-4.4 7.6-.1.3.1.3h9l.1-.3 4-6.9.1-.2.3-.5-.1-.3Zm-12.8 7.5 4.1-7.1h8.1l-4.1 7.1h-8.1ZM462.201 155.8l-.1-.3h-.3l-.3.5-4.1 7.1-.1.3.1.3 4 6.9.1.2.3.5h.3l.1-.3 4.4-7.6-4.4-7.6Zm-.3 14.6-.1-.2-4-6.9 4-6.9.1-.2 4.1 7.1-4.1 7.1Z"/><path fill="#fff" d="m461.9 170.4-.1-.2-4-6.9-.1-.3h-9l-.1.3.1.3 4.4 7.6h9l.1-.3-.3-.5Zm-8.6.3-4.1-7.1h8.1l4 6.9.1.2h-8.1Z"/><path fill="#fff" d="M462 155.6h-9l-4.4 7.6-.1.3.1.3h9l.1-.3 4-6.9.1-.2.3-.5-.1-.3Zm-12.8 7.5 4.1-7.1h8.1l-4.1 7.1h-8.1Z"/><path fill="#F4F1EB" d="M337.099 27.8c-4.8 0-8.7 3.9-8.7 8.7v8.7h-8.7v-8.7c0-3.2.8-6.1 2.3-8.7 1.5-2.6 3.7-4.8 6.3-6.3 2.5-1.5 5.5-2.3 8.7-2.3h8.7v8.7l-8.6-.1Z"/><path fill="#FF003D" d="M193.9.8h-93.4v93.4h93.4V.8Z"/><path fill="#fff" d="M147.199 85.102c-5.1 0-9.8-2-13.4-5.6-3.6-3.6-5.6-8.3-5.6-13.4s2-9.8 5.6-13.4c3.6-3.6 8.3-5.6 13.4-5.6s9.8 2 13.4 5.6c3.6 3.6 5.6 8.3 5.6 13.4s-2 9.8-5.6 13.4c-3.5 3.6-8.3 5.6-13.4 5.6Zm0-37.1c-10 0-18.1 8.1-18.1 18.1 0 10 8.1 18.1 18.1 18.1 10 0 18.1-8.1 18.1-18.1 0-10-8.1-18.1-18.1-18.1Z"/><path fill="#fff" d="M147.201 85.1c-5.1 0-10-1-14.6-2.9-4.5-1.9-8.5-4.6-11.9-8-3.4-3.4-6.2-7.5-8-11.9-2-4.6-2.9-9.5-2.9-14.6s1-10 2.9-14.6c1.9-4.5 4.6-8.5 8-11.9 3.4-3.4 7.5-6.2 11.9-8 4.6-2 9.5-2.9 14.6-2.9s10 1 14.6 2.9c4.5 1.9 8.5 4.6 11.9 8 3.4 3.4 6.2 7.5 8 11.9 2 4.6 2.9 9.5 2.9 14.6s-1 10-2.9 14.6c-1.9 4.5-4.6 8.5-8 11.9-3.4 3.4-7.5 6.2-11.9 8-4.6 1.9-9.5 2.9-14.6 2.9Zm0-74.2c-20.2 0-36.7 16.5-36.7 36.7 0 20.2 16.5 36.7 36.7 36.7 20.2 0 36.7-16.5 36.7-36.7 0-20.3-16.4-36.7-36.7-36.7Z"/><path fill="#5218FA" d="M147.2 85.601c-7.7 0-14.9-3-20.3-8.4s-8.4-12.6-8.4-20.3c0-7.7 3-14.9 8.4-20.3s12.6-8.4 20.3-8.4c7.7 0 14.9 3 20.3 8.4 5.5 5.4 8.5 12.6 8.5 20.3 0 7.7-3 14.9-8.4 20.3-5.5 5.4-12.7 8.4-20.4 8.4Zm0-56.5c-7.4 0-14.4 2.9-19.6 8.1-5.2 5.2-8.1 12.2-8.1 19.6 0 7.4 2.9 14.4 8.1 19.6 5.2 5.2 12.2 8.1 19.6 8.1 7.4 0 14.4-2.9 19.6-8.1 5.2-5.2 8.1-12.2 8.1-19.6 0-7.4-2.9-14.4-8.1-19.6-5.2-5.2-12.1-8.1-19.6-8.1Z"/><path fill="#5218FA" d="M147.2 85.101c5.357 0 9.7-4.343 9.7-9.7 0-5.357-4.343-9.7-9.7-9.7-5.357 0-9.7 4.343-9.7 9.7 0 5.357 4.343 9.7 9.7 9.7ZM294.4.8H201v93.4h93.4V.8Z"/><path fill="#FF003D" d="M260.9 54.8 247.1 41l13.8-13.8L274.7 41l-13.8 13.8ZM248.4 41l12.5 12.5L273.3 41l-12.5-12.5L248.4 41Z"/><path fill="#FF003D" d="m247.705 67.244 13.152-13.152-13.152-13.152-13.152 13.152 13.152 13.152Z"/><path fill="#FF003D" d="m247.7 68-13.8-13.8 13.8-13.8 13.8 13.8L247.7 68Zm-12.5-13.9 12.5 12.5 12.5-12.5-12.5-12.5-12.5 12.5Z"/><path fill="#FF003D" d="m234.601 54.8-13.8-13.8 13.8-13.8 13.8 13.8-13.8 13.8Zm-12.5-13.8 12.5 12.5 12.5-12.5-12.5-12.5-12.5 12.5Z"/><path fill="#fff" d="m444.099 155.8-.1-.3h-.3l-.3.5-4.1 7.1-.1.3.1.3 4 6.9.1.2.3.5h.3l.1-.3 4.4-7.6-4.4-7.6Zm-.2 14.6-.1-.2-4-6.9 4-6.9.1-.2 4.1 7.1-4.1 7.1Z"/><path fill="#fff" d="m443.9 170.4-.1-.2-4-6.9-.1-.3h-9l-.1.3.1.3 4.4 7.6h9l.1-.3-.3-.5Zm-8.6.3-4.1-7.1h8.1l4 6.9.1.2h-8.1Z"/><path fill="#fff" d="M444 155.6h-9l-4.4 7.6-.1.3.1.3h9l.1-.3 4-6.9.1-.2.3-.5-.1-.3Zm-12.8 7.5 4.1-7.1h8.1l-4.1 7.1h-8.1ZM462.201 155.8l-.1-.3h-.3l-.3.5-4.1 7.1-.1.3.1.3 4 6.9.1.2.3.5h.3l.1-.3 4.4-7.6-4.4-7.6Zm-.3 14.6-.1-.2-4-6.9 4-6.9.1-.2 4.1 7.1-4.1 7.1Z"/><path fill="#fff" d="m461.9 170.4-.1-.2-4-6.9-.1-.3h-9l-.1.3.1.3 4.4 7.6h9l.1-.3-.3-.5Zm-8.6.3-4.1-7.1h8.1l4 6.9.1.2h-8.1Z"/><path fill="#fff" d="M462 155.6h-9l-4.4 7.6-.1.3.1.3h9l.1-.3 4-6.9.1-.2.3-.5-.1-.3Zm-12.8 7.5 4.1-7.1h8.1l-4.1 7.1h-8.1Z"/><path fill="#FBBE28" d="M368 36.5c0-4.8-3.9-8.7-8.7-8.7h-8.7v-8.7h8.7c3.2 0 6.1.8 8.7 2.3 2.6 1.5 4.8 3.7 6.3 6.3 1.5 2.5 2.3 5.5 2.3 8.7v8.7H368v-8.6Z"/><path fill="#fff" d="M359.299 76.5h-9.1v-9.6h9.1c2.2 0 4.2-.9 5.8-2.4 1.5-1.5 2.4-3.6 2.4-5.8v-9.1h9.6v9.1c0 3.1-.8 6.2-2.4 8.9-1.6 2.7-3.8 5-6.5 6.5-2.7 1.6-5.8 2.4-8.9 2.4Zm-8.2-1h8.2c3 0 5.9-.8 8.4-2.3 2.6-1.5 4.7-3.6 6.2-6.2s2.3-5.5 2.3-8.4v-8.2h-7.7v8.2c0 5-4.1 9.1-9.1 9.1h-8.2v7.8h-.1Z"/><path fill="#F4F1EB" d="M495.4.8H402v93.4h93.4V.8Z"/><path fill="#FF003D" d="M448.7 80.001c-2.6 0-4.7-2.1-4.7-4.7v-21.6h9.4v21.6c0 2.6-2.1 4.7-4.7 4.7Zm-3.7-25.3v20.6c0 2.1 1.7 3.7 3.7 3.7s3.7-1.7 3.7-3.7v-20.6H445Z"/><path fill="#FF003D" d="M432.399 74.701c-1 0-1.9-.3-2.8-.9-1-.7-1.7-1.8-1.9-3.1-.2-1.2.1-2.5.8-3.5l12.7-17.5 7.6 5.5-12.7 17.5c-.8 1.3-2.2 2-3.7 2Zm9.1-23.6-12.1 16.7c-.6.8-.8 1.8-.7 2.8.2 1 .7 1.9 1.5 2.4.8.6 1.8.8 2.8.7 1-.2 1.9-.7 2.4-1.5l12.1-16.7-6-4.4Z"/><path fill="#FF003D" d="M422.3 60.8c-2 0-3.8-1.3-4.5-3.2-.8-2.5.6-5.1 3-5.9l20.5-6.7 2.9 8.9-20.5 6.7c-.4.2-.9.2-1.4.2Zm-3.5-3.5c.6 2 2.8 3 4.7 2.4l19.6-6.4-2.3-7.1-19.6 6.4c-2 .6-3.1 2.7-2.4 4.7Z"/><path fill="#FF003D" d="m441.4 50.102-20.5-6.7c-1.2-.4-2.2-1.2-2.7-2.3-.6-1.1-.7-2.4-.3-3.6.4-1.2 1.2-2.2 2.3-2.7 1.1-.6 2.4-.7 3.6-.3l20.5 6.7-2.9 8.9Zm-19.1-14.8c-.6 0-1.2.1-1.7.4-.9.5-1.6 1.2-1.9 2.2-.3 1-.2 2 .2 2.9.5.9 1.2 1.6 2.2 1.9l19.6 6.4 2.3-7.1-19.6-6.4c-.3-.3-.7-.3-1.1-.3Z"/><path fill="#FF003D" d="m441.3 45.401-12.7-17.5c-1.5-2.1-1.1-5 1-6.6 2.1-1.5 5-1.1 6.6 1l12.7 17.5-7.6 5.6Zm-8.9-24c-.8 0-1.5.2-2.2.7-1.7 1.2-2 3.6-.8 5.2l12.1 16.7 6.1-4.4-12.1-16.7c-.8-1-1.9-1.5-3.1-1.5Z"/><path fill="#FF003D" d="M453.4 41.402H444v-21.6c0-2.6 2.1-4.7 4.7-4.7s4.7 2.1 4.7 4.7v21.6Zm-8.4-.9h7.5v-20.6c0-2.1-1.7-3.7-3.7-3.7-2.1 0-3.7 1.7-3.7 3.7v20.6h-.1Z"/><path fill="#5218FA" d="M467.499 21.7c-1.9-1.4-4.5-1-5.9.9l-12.4 17.1 6.8 5 12.4-17.1c1.4-1.9 1-4.5-.9-5.9Z"/><path fill="#FF003D" d="m456 50.102-2.9-8.9 20.5-6.7c1.2-.4 2.5-.3 3.6.3s1.9 1.5 2.3 2.7c.4 1.2.3 2.5-.3 3.6s-1.5 1.9-2.7 2.3l-20.5 6.7Zm-1.7-8.3 2.3 7.1 19.6-6.4c1-.3 1.7-1 2.2-1.9.5-.9.5-1.9.2-2.9s-1-1.7-1.9-2.2c-.9-.5-1.9-.5-2.9-.2l-19.5 6.5Z"/><path fill="#FF003D" d="M475.099 60.8c-.5 0-1-.1-1.4-.2l-20.5-6.7 2.8-8.9 20.5 6.7c1.2.4 2.2 1.2 2.7 2.3.6 1.1.7 2.4.3 3.6-.6 2-2.5 3.2-4.4 3.2Zm-20.8-7.5 19.6 6.4c2 .6 4.1-.4 4.7-2.4.3-1 .2-2-.2-2.9-.5-.9-1.2-1.6-2.2-1.9l-19.6-6.4-2.3 7.2Z"/><path fill="#FF003D" d="M465 74.7c-1.5 0-2.9-.7-3.8-1.9l-12.7-17.5 7.6-5.5 12.7 17.5c1.5 2.1 1.1 5-1 6.6-.9.5-1.8.8-2.8.8Zm-15.2-19.2L462 72.2c1.2 1.7 3.6 2 5.2.8 1.7-1.2 2-3.6.8-5.2l-12.1-16.7-6.1 4.4ZM396.099 101h-93.4v93.4h93.4V101Z"/><path fill="#fff" d="M345.599 151.6c-2.7-2.7-6.2-4.1-9.9-4.1s-7.3 1.5-9.9 4.1c-1 1-1.9 2.2-2.5 3.4-.1.3-.3.6-.4.8-.8 1.8-1.2 3.7-1.2 5.7 0 1.4.2 2.7.6 4 .1-.3.3-.6.4-.8-.3-1-.4-2.1-.4-3.2 0-1.7.3-3.3.9-4.8.1-.3.2-.6.4-.9 2.1-4.6 6.8-7.8 12.2-7.8 7.4 0 13.5 6 13.5 13.5 0 5.4-3.2 10.1-7.8 12.2-.3.1-.6.3-.9.4-1.5.6-3.1.9-4.8.9-1.1 0-2.2-.1-3.2-.4-.3.2-.5.3-.8.4 1.3.4 2.7.6 4 .6 2 0 3.9-.4 5.7-1.2.3-.1.6-.3.8-.4 1.2-.7 2.4-1.5 3.4-2.5 2.7-2.7 4.1-6.2 4.1-9.9-.1-3.8-1.5-7.4-4.2-10Z"/><path fill="#fff" d="M375.099 136.9c-1.4-3.3-3.4-6.3-6-8.8-2.6-2.6-5.5-4.6-8.8-6-3.4-1.5-7.1-2.2-10.8-2.2-3.7 0-7.4.7-10.8 2.2-3.3 1.4-6.3 3.4-8.8 6-2.6 2.6-4.6 5.5-6 8.8-1.5 3.4-2.2 7.1-2.2 10.8 0 2.8.4 5.5 1.2 8.1l.3.9c.2.6.4 1.2.7 1.8.5 1.2 1.1 2.3 1.7 3.4l.6-.3c-1.1-1.8-2-3.8-2.6-5.9l-.3-.9c-.6-2.3-1-4.7-1-7.2 0-15 12.2-27.2 27.2-27.2s27.2 12.2 27.2 27.2-12.3 27.4-27.3 27.4c-2.5 0-4.9-.3-7.2-1l-.9-.3c-2.1-.6-4-1.5-5.9-2.6l-.3.6c1.1.7 2.2 1.2 3.4 1.7.6.3 1.2.5 1.8.7l.9.3c2.6.8 5.3 1.2 8.1 1.2 3.8 0 7.4-.7 10.8-2.2 3.3-1.4 6.3-3.4 8.8-6 2.6-2.6 4.6-5.5 6-8.8 1.5-3.4 2.2-7.1 2.2-10.8.2-3.8-.6-7.5-2-10.9Z"/><path fill="#fff" d="M357.399 139.799c-4-4-9.2-6.1-14.8-6.1-5.6 0-10.9 2.2-14.8 6.1-4 4-6.1 9.2-6.1 14.8 0 3.1.7 6.1 1.9 8.8l.5-.5c-1.2-2.6-1.8-5.4-1.8-8.4 0-11.2 9.1-20.3 20.3-20.3 11.2 0 20.3 9.1 20.3 20.3 0 11.2-9.1 20.3-20.3 20.3-3 0-5.8-.6-8.4-1.8-.1.2-.3.3-.5.5 2.7 1.3 5.7 1.9 8.8 1.9 5.6 0 10.9-2.2 14.8-6.1 4-4 6.1-9.2 6.1-14.8.1-5.5-2.1-10.7-6-14.7Z"/><path fill="#000" d="M325.7 171.5c1.7 1.7 3.7 2.9 5.9 3.5-.9.4-1.8.6-2.8.6-4 0-7.2-3.2-7.2-7.2 0-1 .2-2 .6-2.8.6 2.2 1.8 4.2 3.5 5.9Z"/><path fill="#000" d="M333.7 173.598c-.4.4-.8.7-1.3.9-4.8-1.2-8.7-5-9.8-9.8.3-.5.6-.9.9-1.3 1 2.2 2.4 4.2 4.2 6 1.8 1.8 3.8 3.2 6 4.2Z"/><path fill="#000" d="M329.7 167.4c1.6 1.6 3.5 3.1 5.4 4.2-.3.5-.6 1-1 1.5-4.5-2-8.1-5.7-10.1-10.1.5-.4 1-.7 1.5-1 1.2 2 2.6 3.8 4.2 5.4Z"/><path fill="#000" d="M336 168.399c0 1-.2 1.9-.5 2.7-3.8-2.3-7.1-5.5-9.4-9.4.8-.3 1.7-.5 2.7-.5 3.9 0 7.2 3.2 7.2 7.2Z"/><path fill="#F4F1EB" d="M93.7 101.1H.3v93.4h93.4v-93.4Z"/><path fill="#5218FA" d="m59.9 149.699 4.9 4.9 6.8-6.8-6.8-6.8-4.9 4.9h-4.2l-1.2-2.9 3-3h2.1c1.3 0 2.5-.5 3.4-1.4.9-.9 1.4-2.1 1.4-3.4 0-1.3-.5-2.5-1.4-3.4-.9-.9-2.1-1.4-3.4-1.4-1.3 0-2.5.5-3.4 1.4-.9.9-1.4 2.1-1.4 3.4v2.1l-3 3-2.9-1.2v-4.1l4.9-4.9-6.8-6.8-6.8 6.8 4.9 4.9v4.2l-2.9 1.2-3-3v-6.9h-9.6v9.6h6.9l3 3-1.2 2.9h-4.2l-4.9-4.9-6.8 6.8 6.8 6.8 4.9-4.9h4.2l1.2 2.9-3 3h-6.9v9.6h9.6v-6.9l3-3 2.9 1.2v4.2l-4.9 4.9 6.8 6.8 6.8-6.8-4.9-4.9v-4.2l2.9-1.2 3 3v6.9h9.6v-9.6h-6.9l-3-3 1.2-2.9h4.2v-.1Zm-6.4 3.2 3.6 3.6h6.5v7.9h-7.9v-6.4l-3.6-3.6-4 1.6v5.1l4.6 4.6-5.6 5.6-5.6-5.6 4.6-4.6v-5.1l-4-1.6-3.6 3.6v6.5h-7.9v-7.9h6.5l3.6-3.6-1.6-4H34l-4.6 4.6-5.6-5.6 5.6-5.6 4.6 4.6h5.1l1.6-4-3.6-3.6h-6.5v-7.9h7.9v6.5l3.6 3.6 4-1.6v-5.1l-4.6-4.6 5.6-5.6 5.6 5.6-4.6 4.6v5.1l4 1.6 3.6-3.6v-2.5c0-1.1.4-2.1 1.2-2.8.7-.7 1.7-1.2 2.8-1.2 1.1 0 2.1.4 2.8 1.2.7.7 1.2 1.7 1.2 2.8 0 1.1-.4 2.1-1.2 2.8-.8.8-1.7 1.2-2.8 1.2h-2.5l-3.6 3.6 1.6 4h5.1l4.6-4.6 5.6 5.6-5.6 5.6-4.6-4.6h-5.1l-1.7 3.8Z"/><path fill="#000" d="M47 152.4a4.5 4.5 0 1 0 0-9 4.5 4.5 0 0 0 0 9Z"/><path fill="#fff" d="m444.099 124.601-.1-.3h-.3l-.3.5-4.1 7.1-.1.2.1.3 4 6.8.1.2.3.5h.3l.1-.2 4.4-7.6-4.4-7.5Z"/><path fill="#fff" d="m443.899 139.202-.2-.2-3.9-6.9 3.9-6.8.2-.2 4 7-4 7.1Z"/><path fill="#fff" d="m443.9 139.2-.2-.2-3.9-6.9-.2-.2h-9l-.1.2.1.3 4.4 7.5h9l.1-.2-.2-.5Z"/><path fill="#fff" d="m435.299 139.4-4.1-7h8.1l4 6.8.1.2h-8.1Z"/><path fill="#FBBE28" d="M444 124.301h-9l-4.4 7.6-.1.2.1.3h9l.2-.3 3.9-6.8.2-.2.2-.5-.1-.3Z"/><path fill="#FBBE28" d="m431.199 131.901 4.1-7.1h8.1l-4.1 7.1h-8.1Z"/><path fill="#fff" d="m453.201 140.2-.1-.3h-.3l-.3.5-4.1 7.1-.1.3.1.3 4 6.9.1.2.3.5h.3l.1-.3 4.4-7.6-4.4-7.6Zm-.3 14.6-.1-.2-4-6.9 4-6.9.1-.2 4.1 7.1-4.1 7.1Z"/><path fill="#fff" d="m452.9 154.8-.1-.2-4-6.9-.1-.3h-9l-.1.3.1.3 4.4 7.6h9l.1-.3-.3-.5Zm-8.6.3-4.1-7.1h8.1l4 6.9.1.2h-8.1Z"/><path fill="#fff" d="M453 139.9h-9l-4.4 7.6-.1.3.1.3h9l.1-.3 4-6.9.1-.2.3-.5-.1-.3Zm-12.8 7.6 4.1-7.1h8.1l-4.1 7.1h-8.1ZM435.099 140.2l-.1-.3h-.3l-.3.5-4.1 7.1-.1.3.1.3 4 6.9.1.2.3.5h.3l.1-.3 4.4-7.6-4.4-7.6Zm-.3 14.6-.1-.2-4-6.9 4-6.9.1-.2 4.1 7.1-4.1 7.1Z"/><path fill="#fff" d="m434.8 154.8-.1-.2-4-6.9-.1-.3h-9l-.1.3.1.3 4.4 7.6h9l.1-.3-.3-.5Zm-8.6.3-4.1-7.1h8.1l4 6.9.1.2h-8.1Z"/><path fill="#fff" d="M435 139.9h-9l-4.4 7.6-.1.3.1.3h9l.1-.3 4-6.9.1-.2.3-.5-.1-.3Zm-12.8 7.6 4.1-7.1h8.1l-4.1 7.1h-8.1ZM471.199 140.2l-.1-.3h-.3l-.3.5-4.1 7.1-.1.3.1.3 4 6.9.1.2.3.5h.3l.1-.3 4.4-7.6-4.4-7.6Zm-.3 14.6-.1-.2-4-6.9 4-6.9.1-.2 4.1 7.1-4.1 7.1Z"/><path fill="#fff" d="m470.9 154.8-.1-.2-4-6.9-.1-.3h-9l-.1.3.1.3 4.4 7.6h9l.1-.3-.3-.5Zm-8.6.3-4.1-7.1h8.1l4 6.9.1.2h-8.1Z"/><path fill="#fff" d="M471.1 139.9h-9l-4.4 7.6-.1.3.1.3h9l.1-.3 4-6.9.1-.2.3-.5-.1-.3Zm-12.8 7.6 4.1-7.1h8.1l-4.1 7.1h-8.1Z"/><path fill="#fff" d="m462.201 124.601-.1-.3h-.3l-.3.5-4.1 7.1-.1.3.1.3 4 6.9.1.2.3.5h.3l.1-.3 4.4-7.6-4.4-7.6Zm-.3 14.6-.1-.2-4-6.9 4-6.9.1-.2 4.1 7.1-4.1 7.1Z"/><path fill="#fff" d="m461.9 139.201-.1-.2-4-6.9-.1-.3h-9l-.1.3.1.3 4.4 7.6h9l.1-.3-.3-.5Zm-8.6.2-4.1-7.1h8.1l4 6.9.1.2h-8.1Z"/><path fill="#fff" d="M462 124.301h-9l-4.4 7.6-.1.3.1.3h9l.1-.3 4-6.9.1-.2.3-.5-.1-.3Zm-12.8 7.6 4.1-7.1h8.1l-4.1 7.1h-8.1Z"/><path fill="#FBBE28" d="M93.4.8H0v93.4h93.4V.8Z"/><path fill="#FF003D" d="M46.7 61.4c7.842 0 14.2-6.358 14.2-14.2S54.542 33 46.7 33s-14.2 6.358-14.2 14.2 6.358 14.2 14.2 14.2Z"/><path fill="#000" d="M85.2 46.9c-.2-.2-.4-.3-.6-.5-5.1-4.4-11-7.8-17.3-10.2-6.4-2.4-13.3-3.7-20.3-3.7h-.4c-7 0-13.9 1.3-20.4 3.7C19.8 38.6 14 42 8.9 46.4c-.2.2-.4.3-.6.5H0v1.3h8.3c.2.2.4.3.6.5 6.6 5.6 14.5 9.8 22.8 12l.5.1c4.7 1.2 9.7 1.8 14.6 1.8s9.9-.6 14.6-1.8l.5-.1c8.3-2.2 16.2-6.4 22.8-12 .2-.2.4-.3.6-.5h8.3v-1.3h-8.4ZM60.5 48v.1c0 .3 0 .7-.1 1v.6c-1 6.6-6.8 11.7-13.6 11.7-7.1 0-13-5.4-13.7-12.3v-1.4c0-7.6 6.2-13.8 13.8-13.8 7.6 0 13.8 6.2 13.8 13.8-.2 0-.2.2-.2.3Zm-50.8-.3-.2-.2.2-.2c8.5-7.3 19-11.8 30.1-13.2-4.8 2.5-8.1 7.6-8.1 13.4v11.8c-8.1-2.1-15.7-6.1-22-11.6Zm74.1 0c-6.4 5.4-13.9 9.4-22 11.6V47.6c0-5.8-3.3-10.8-8.1-13.4 11.1 1.4 21.5 5.9 30.1 13.2l.2.2c-.1 0-.1.1-.2.1Z"/><path fill="#FBBE28" d="M368 36.5c0-4.8-3.9-8.7-8.7-8.7h-8.7v-8.7h8.7c3.2 0 6.1.8 8.7 2.3 2.6 1.5 4.8 3.7 6.3 6.3 1.5 2.5 2.3 5.5 2.3 8.7v8.7H368v-8.6Z"/><path fill="#fff" d="M359.299 76.5h-9.1v-9.6h9.1c2.2 0 4.2-.9 5.8-2.4 1.5-1.5 2.4-3.6 2.4-5.8v-9.1h9.6v9.1c0 3.1-.8 6.2-2.4 8.9-1.6 2.7-3.8 5-6.5 6.5-2.7 1.6-5.8 2.4-8.9 2.4Zm-8.2-1h8.2c3 0 5.9-.8 8.4-2.3 2.6-1.5 4.7-3.6 6.2-6.2s2.3-5.5 2.3-8.4v-8.2h-7.7v8.2c0 5-4.1 9.1-9.1 9.1h-8.2v7.8h-.1Z"/><path fill="#F4F1EB" d="M495.4.8H402v93.4h93.4V.8Z"/><path fill="#FF003D" d="M448.7 80.001c-2.6 0-4.7-2.1-4.7-4.7v-21.6h9.4v21.6c0 2.6-2.1 4.7-4.7 4.7Zm-3.7-25.3v20.6c0 2.1 1.7 3.7 3.7 3.7s3.7-1.7 3.7-3.7v-20.6H445Z"/><path fill="#FF003D" d="M432.399 74.701c-1 0-1.9-.3-2.8-.9-1-.7-1.7-1.8-1.9-3.1-.2-1.2.1-2.5.8-3.5l12.7-17.5 7.6 5.5-12.7 17.5c-.8 1.3-2.2 2-3.7 2Zm9.1-23.6-12.1 16.7c-.6.8-.8 1.8-.7 2.8.2 1 .7 1.9 1.5 2.4.8.6 1.8.8 2.8.7 1-.2 1.9-.7 2.4-1.5l12.1-16.7-6-4.4Z"/><path fill="#FF003D" d="M422.3 60.8c-2 0-3.8-1.3-4.5-3.2-.8-2.5.6-5.1 3-5.9l20.5-6.7 2.9 8.9-20.5 6.7c-.4.2-.9.2-1.4.2Zm-3.5-3.5c.6 2 2.8 3 4.7 2.4l19.6-6.4-2.3-7.1-19.6 6.4c-2 .6-3.1 2.7-2.4 4.7Z"/><path fill="#FF003D" d="m441.4 50.102-20.5-6.7c-1.2-.4-2.2-1.2-2.7-2.3-.6-1.1-.7-2.4-.3-3.6.4-1.2 1.2-2.2 2.3-2.7 1.1-.6 2.4-.7 3.6-.3l20.5 6.7-2.9 8.9Zm-19.1-14.8c-.6 0-1.2.1-1.7.4-.9.5-1.6 1.2-1.9 2.2-.3 1-.2 2 .2 2.9.5.9 1.2 1.6 2.2 1.9l19.6 6.4 2.3-7.1-19.6-6.4c-.3-.3-.7-.3-1.1-.3Z"/><path fill="#FF003D" d="m441.3 45.401-12.7-17.5c-1.5-2.1-1.1-5 1-6.6 2.1-1.5 5-1.1 6.6 1l12.7 17.5-7.6 5.6Zm-8.9-24c-.8 0-1.5.2-2.2.7-1.7 1.2-2 3.6-.8 5.2l12.1 16.7 6.1-4.4-12.1-16.7c-.8-1-1.9-1.5-3.1-1.5Z"/><path fill="#FF003D" d="M453.4 41.402H444v-21.6c0-2.6 2.1-4.7 4.7-4.7s4.7 2.1 4.7 4.7v21.6Zm-8.4-.9h7.5v-20.6c0-2.1-1.7-3.7-3.7-3.7-2.1 0-3.7 1.7-3.7 3.7v20.6h-.1Z"/><path fill="#5218FA" d="M467.499 21.7c-1.9-1.4-4.5-1-5.9.9l-12.4 17.1 6.8 5 12.4-17.1c1.4-1.9 1-4.5-.9-5.9Z"/><path fill="#FF003D" d="m456 50.102-2.9-8.9 20.5-6.7c1.2-.4 2.5-.3 3.6.3s1.9 1.5 2.3 2.7c.4 1.2.3 2.5-.3 3.6s-1.5 1.9-2.7 2.3l-20.5 6.7Zm-1.7-8.3 2.3 7.1 19.6-6.4c1-.3 1.7-1 2.2-1.9.5-.9.5-1.9.2-2.9s-1-1.7-1.9-2.2c-.9-.5-1.9-.5-2.9-.2l-19.5 6.5Z"/><path fill="#FF003D" d="M475.099 60.8c-.5 0-1-.1-1.4-.2l-20.5-6.7 2.8-8.9 20.5 6.7c1.2.4 2.2 1.2 2.7 2.3.6 1.1.7 2.4.3 3.6-.6 2-2.5 3.2-4.4 3.2Zm-20.8-7.5 19.6 6.4c2 .6 4.1-.4 4.7-2.4.3-1 .2-2-.2-2.9-.5-.9-1.2-1.6-2.2-1.9l-19.6-6.4-2.3 7.2Z"/><path fill="#FF003D" d="M465 74.7c-1.5 0-2.9-.7-3.8-1.9l-12.7-17.5 7.6-5.5 12.7 17.5c1.5 2.1 1.1 5-1 6.6-.9.5-1.8.8-2.8.8Zm-15.2-19.2L462 72.2c1.2 1.7 3.6 2 5.2.8 1.7-1.2 2-3.6.8-5.2l-12.1-16.7-6.1 4.4ZM396.099 101h-93.4v93.4h93.4V101Z"/><path fill="#fff" d="M345.599 151.6c-2.7-2.7-6.2-4.1-9.9-4.1s-7.3 1.5-9.9 4.1c-1 1-1.9 2.2-2.5 3.4-.1.3-.3.6-.4.8-.8 1.8-1.2 3.7-1.2 5.7 0 1.4.2 2.7.6 4 .1-.3.3-.6.4-.8-.3-1-.4-2.1-.4-3.2 0-1.7.3-3.3.9-4.8.1-.3.2-.6.4-.9 2.1-4.6 6.8-7.8 12.2-7.8 7.4 0 13.5 6 13.5 13.5 0 5.4-3.2 10.1-7.8 12.2-.3.1-.6.3-.9.4-1.5.6-3.1.9-4.8.9-1.1 0-2.2-.1-3.2-.4-.3.2-.5.3-.8.4 1.3.4 2.7.6 4 .6 2 0 3.9-.4 5.7-1.2.3-.1.6-.3.8-.4 1.2-.7 2.4-1.5 3.4-2.5 2.7-2.7 4.1-6.2 4.1-9.9-.1-3.8-1.5-7.4-4.2-10Z"/><path fill="#fff" d="M375.099 136.9c-1.4-3.3-3.4-6.3-6-8.8-2.6-2.6-5.5-4.6-8.8-6-3.4-1.5-7.1-2.2-10.8-2.2-3.7 0-7.4.7-10.8 2.2-3.3 1.4-6.3 3.4-8.8 6-2.6 2.6-4.6 5.5-6 8.8-1.5 3.4-2.2 7.1-2.2 10.8 0 2.8.4 5.5 1.2 8.1l.3.9c.2.6.4 1.2.7 1.8.5 1.2 1.1 2.3 1.7 3.4l.6-.3c-1.1-1.8-2-3.8-2.6-5.9l-.3-.9c-.6-2.3-1-4.7-1-7.2 0-15 12.2-27.2 27.2-27.2s27.2 12.2 27.2 27.2-12.3 27.4-27.3 27.4c-2.5 0-4.9-.3-7.2-1l-.9-.3c-2.1-.6-4-1.5-5.9-2.6l-.3.6c1.1.7 2.2 1.2 3.4 1.7.6.3 1.2.5 1.8.7l.9.3c2.6.8 5.3 1.2 8.1 1.2 3.8 0 7.4-.7 10.8-2.2 3.3-1.4 6.3-3.4 8.8-6 2.6-2.6 4.6-5.5 6-8.8 1.5-3.4 2.2-7.1 2.2-10.8.2-3.8-.6-7.5-2-10.9Z"/><path fill="#fff" d="M357.399 139.799c-4-4-9.2-6.1-14.8-6.1-5.6 0-10.9 2.2-14.8 6.1-4 4-6.1 9.2-6.1 14.8 0 3.1.7 6.1 1.9 8.8l.5-.5c-1.2-2.6-1.8-5.4-1.8-8.4 0-11.2 9.1-20.3 20.3-20.3 11.2 0 20.3 9.1 20.3 20.3 0 11.2-9.1 20.3-20.3 20.3-3 0-5.8-.6-8.4-1.8-.1.2-.3.3-.5.5 2.7 1.3 5.7 1.9 8.8 1.9 5.6 0 10.9-2.2 14.8-6.1 4-4 6.1-9.2 6.1-14.8.1-5.5-2.1-10.7-6-14.7Z"/><path fill="#000" d="M325.7 171.5c1.7 1.7 3.7 2.9 5.9 3.5-.9.4-1.8.6-2.8.6-4 0-7.2-3.2-7.2-7.2 0-1 .2-2 .6-2.8.6 2.2 1.8 4.2 3.5 5.9Z"/><path fill="#000" d="M333.7 173.598c-.4.4-.8.7-1.3.9-4.8-1.2-8.7-5-9.8-9.8.3-.5.6-.9.9-1.3 1 2.2 2.4 4.2 4.2 6 1.8 1.8 3.8 3.2 6 4.2Z"/><path fill="#000" d="M329.7 167.4c1.6 1.6 3.5 3.1 5.4 4.2-.3.5-.6 1-1 1.5-4.5-2-8.1-5.7-10.1-10.1.5-.4 1-.7 1.5-1 1.2 2 2.6 3.8 4.2 5.4Z"/><path fill="#000" d="M336 168.399c0 1-.2 1.9-.5 2.7-3.8-2.3-7.1-5.5-9.4-9.4.8-.3 1.7-.5 2.7-.5 3.9 0 7.2 3.2 7.2 7.2Z"/><path fill="#F4F1EB" d="M93.7 101.1H.3v93.4h93.4v-93.4Z"/><path fill="#5218FA" d="m59.9 149.699 4.9 4.9 6.8-6.8-6.8-6.8-4.9 4.9h-4.2l-1.2-2.9 3-3h2.1c1.3 0 2.5-.5 3.4-1.4.9-.9 1.4-2.1 1.4-3.4 0-1.3-.5-2.5-1.4-3.4-.9-.9-2.1-1.4-3.4-1.4-1.3 0-2.5.5-3.4 1.4-.9.9-1.4 2.1-1.4 3.4v2.1l-3 3-2.9-1.2v-4.1l4.9-4.9-6.8-6.8-6.8 6.8 4.9 4.9v4.2l-2.9 1.2-3-3v-6.9h-9.6v9.6h6.9l3 3-1.2 2.9h-4.2l-4.9-4.9-6.8 6.8 6.8 6.8 4.9-4.9h4.2l1.2 2.9-3 3h-6.9v9.6h9.6v-6.9l3-3 2.9 1.2v4.2l-4.9 4.9 6.8 6.8 6.8-6.8-4.9-4.9v-4.2l2.9-1.2 3 3v6.9h9.6v-9.6h-6.9l-3-3 1.2-2.9h4.2v-.1Zm-6.4 3.2 3.6 3.6h6.5v7.9h-7.9v-6.4l-3.6-3.6-4 1.6v5.1l4.6 4.6-5.6 5.6-5.6-5.6 4.6-4.6v-5.1l-4-1.6-3.6 3.6v6.5h-7.9v-7.9h6.5l3.6-3.6-1.6-4H34l-4.6 4.6-5.6-5.6 5.6-5.6 4.6 4.6h5.1l1.6-4-3.6-3.6h-6.5v-7.9h7.9v6.5l3.6 3.6 4-1.6v-5.1l-4.6-4.6 5.6-5.6 5.6 5.6-4.6 4.6v5.1l4 1.6 3.6-3.6v-2.5c0-1.1.4-2.1 1.2-2.8.7-.7 1.7-1.2 2.8-1.2 1.1 0 2.1.4 2.8 1.2.7.7 1.2 1.7 1.2 2.8 0 1.1-.4 2.1-1.2 2.8-.8.8-1.7 1.2-2.8 1.2h-2.5l-3.6 3.6 1.6 4h5.1l4.6-4.6 5.6 5.6-5.6 5.6-4.6-4.6h-5.1l-1.7 3.8Z"/><path fill="#000" d="M47 152.4a4.5 4.5 0 1 0 0-9 4.5 4.5 0 0 0 0 9Z"/><path fill="#fff" d="m444.099 124.601-.1-.3h-.3l-.3.5-4.1 7.1-.1.2.1.3 4 6.8.1.2.3.5h.3l.1-.2 4.4-7.6-4.4-7.5Z"/><path fill="#fff" d="m443.899 139.202-.2-.2-3.9-6.9 3.9-6.8.2-.2 4 7-4 7.1Z"/><path fill="#fff" d="m443.9 139.2-.2-.2-3.9-6.9-.2-.2h-9l-.1.2.1.3 4.4 7.5h9l.1-.2-.2-.5Z"/><path fill="#fff" d="m435.299 139.4-4.1-7h8.1l4 6.8.1.2h-8.1Z"/><path fill="#FBBE28" d="M444 124.301h-9l-4.4 7.6-.1.2.1.3h9l.2-.3 3.9-6.8.2-.2.2-.5-.1-.3Z"/><path fill="#FBBE28" d="m431.199 131.901 4.1-7.1h8.1l-4.1 7.1h-8.1Z"/><path fill="#fff" d="m453.201 140.2-.1-.3h-.3l-.3.5-4.1 7.1-.1.3.1.3 4 6.9.1.2.3.5h.3l.1-.3 4.4-7.6-4.4-7.6Zm-.3 14.6-.1-.2-4-6.9 4-6.9.1-.2 4.1 7.1-4.1 7.1Z"/><path fill="#fff" d="m452.9 154.8-.1-.2-4-6.9-.1-.3h-9l-.1.3.1.3 4.4 7.6h9l.1-.3-.3-.5Zm-8.6.3-4.1-7.1h8.1l4 6.9.1.2h-8.1Z"/><path fill="#fff" d="M453 139.9h-9l-4.4 7.6-.1.3.1.3h9l.1-.3 4-6.9.1-.2.3-.5-.1-.3Zm-12.8 7.6 4.1-7.1h8.1l-4.1 7.1h-8.1ZM435.099 140.2l-.1-.3h-.3l-.3.5-4.1 7.1-.1.3.1.3 4 6.9.1.2.3.5h.3l.1-.3 4.4-7.6-4.4-7.6Zm-.3 14.6-.1-.2-4-6.9 4-6.9.1-.2 4.1 7.1-4.1 7.1Z"/><path fill="#fff" d="m434.8 154.8-.1-.2-4-6.9-.1-.3h-9l-.1.3.1.3 4.4 7.6h9l.1-.3-.3-.5Zm-8.6.3-4.1-7.1h8.1l4 6.9.1.2h-8.1Z"/><path fill="#fff" d="M435 139.9h-9l-4.4 7.6-.1.3.1.3h9l.1-.3 4-6.9.1-.2.3-.5-.1-.3Zm-12.8 7.6 4.1-7.1h8.1l-4.1 7.1h-8.1ZM471.199 140.2l-.1-.3h-.3l-.3.5-4.1 7.1-.1.3.1.3 4 6.9.1.2.3.5h.3l.1-.3 4.4-7.6-4.4-7.6Zm-.3 14.6-.1-.2-4-6.9 4-6.9.1-.2 4.1 7.1-4.1 7.1Z"/><path fill="#fff" d="m470.9 154.8-.1-.2-4-6.9-.1-.3h-9l-.1.3.1.3 4.4 7.6h9l.1-.3-.3-.5Zm-8.6.3-4.1-7.1h8.1l4 6.9.1.2h-8.1Z"/><path fill="#fff" d="M471.1 139.9h-9l-4.4 7.6-.1.3.1.3h9l.1-.3 4-6.9.1-.2.3-.5-.1-.3Zm-12.8 7.6 4.1-7.1h8.1l-4.1 7.1h-8.1Z"/><path fill="#fff" d="m462.201 124.601-.1-.3h-.3l-.3.5-4.1 7.1-.1.3.1.3 4 6.9.1.2.3.5h.3l.1-.3 4.4-7.6-4.4-7.6Zm-.3 14.6-.1-.2-4-6.9 4-6.9.1-.2 4.1 7.1-4.1 7.1Z"/><path fill="#fff" d="m461.9 139.201-.1-.2-4-6.9-.1-.3h-9l-.1.3.1.3 4.4 7.6h9l.1-.3-.3-.5Zm-8.6.2-4.1-7.1h8.1l4 6.9.1.2h-8.1Z"/><path fill="#fff" d="M462 124.301h-9l-4.4 7.6-.1.3.1.3h9l.1-.3 4-6.9.1-.2.3-.5-.1-.3Zm-12.8 7.6 4.1-7.1h8.1l-4.1 7.1h-8.1Z"/><path fill="#FBBE28" d="M93.4.8H0v93.4h93.4V.8Z"/><path fill="#FF003D" d="M46.7 61.4c7.842 0 14.2-6.358 14.2-14.2S54.542 33 46.7 33s-14.2 6.358-14.2 14.2 6.358 14.2 14.2 14.2Z"/><path fill="#000" d="M85.2 46.9c-.2-.2-.4-.3-.6-.5-5.1-4.4-11-7.8-17.3-10.2-6.4-2.4-13.3-3.7-20.3-3.7h-.4c-7 0-13.9 1.3-20.4 3.7C19.8 38.6 14 42 8.9 46.4c-.2.2-.4.3-.6.5H0v1.3h8.3c.2.2.4.3.6.5 6.6 5.6 14.5 9.8 22.8 12l.5.1c4.7 1.2 9.7 1.8 14.6 1.8s9.9-.6 14.6-1.8l.5-.1c8.3-2.2 16.2-6.4 22.8-12 .2-.2.4-.3.6-.5h8.3v-1.3h-8.4ZM60.5 48v.1c0 .3 0 .7-.1 1v.6c-1 6.6-6.8 11.7-13.6 11.7-7.1 0-13-5.4-13.7-12.3v-1.4c0-7.6 6.2-13.8 13.8-13.8 7.6 0 13.8 6.2 13.8 13.8-.2 0-.2.2-.2.3Zm-50.8-.3-.2-.2.2-.2c8.5-7.3 19-11.8 30.1-13.2-4.8 2.5-8.1 7.6-8.1 13.4v11.8c-8.1-2.1-15.7-6.1-22-11.6Zm74.1 0c-6.4 5.4-13.9 9.4-22 11.6V47.6c0-5.8-3.3-10.8-8.1-13.4 11.1 1.4 21.5 5.9 30.1 13.2l.2.2c-.1 0-.1.1-.2.1ZM694.599 100.898h-93.4v93.4h93.4v-93.4Z"/><path fill="#FBBE28" d="M636.399 121.998h-14.1v14.1h14.1v-14.1Z"/><path fill="#fff" d="M674 136.498h-15v-15h15v15Zm-14-.9h13.1v-13.1H660v13.1Z"/><path fill="#FF003D" d="M654.998 121.998h-14.1v14.1h14.1v-14.1Z"/><path fill="#fff" d="M636.898 173.699h-15v-15h15v15Zm-14.1-.9h13.1v-13.1h-13.1v13.1ZM674 173.699h-15v-15h15v15Zm-14-.9h13.1v-13.1H660v13.1ZM655.398 173.699h-15v-15h15v15Zm-14-.9h13.1v-13.1h-13.1v13.1ZM636.898 155.098h-15v-15h15v15Zm-14.1-.9h13.1v-13.1h-13.1v13.1ZM674 155.098h-15v-15h15v15Zm-14-.9h13.1v-13.1H660v13.1Z"/><path fill="#5218FA" d="M654.998 140.598h-14.1v14.1h14.1v-14.1Z"/><path fill="#000" d="M895.4.7H802v93.4h93.4V.7Z"/><path fill="#FBBE28" d="M868.5 36.4c0-4.8-3.9-8.7-8.7-8.7h-8.7V19h8.7c3.2 0 6.1.8 8.7 2.3 2.6 1.5 4.8 3.7 6.3 6.3 1.5 2.5 2.3 5.5 2.3 8.7V45h-8.7v-8.6h.1Z"/><path fill="#F4F1EB" d="M837.701 27.7c-4.8 0-8.7 3.9-8.7 8.7V45h-8.7v-8.7c0-3.2.8-6.1 2.3-8.7 1.5-2.6 3.7-4.8 6.3-6.3 2.5-1.5 5.5-2.3 8.7-2.3h8.7v8.7h-8.6Z"/><path fill="#fff" d="M859.901 76.4h-9.1v-9.6h9.1c2.2 0 4.2-.9 5.8-2.4 1.6-1.5 2.4-3.6 2.4-5.8v-9.1h9.6v9.1c0 3.1-.8 6.2-2.4 8.9-1.6 2.7-3.8 5-6.5 6.5s-5.8 2.4-8.9 2.4Zm-8.2-1h8.2c3 0 5.9-.8 8.4-2.3 2.6-1.5 4.7-3.6 6.2-6.2s2.3-5.5 2.3-8.4v-8.2h-7.8v8.2c0 5-4.1 9.1-9.1 9.1h-8.2v7.8Z"/><path fill="#F4F1EB" d="M995.9.7h-93.4v93.4h93.4V.7Z"/><path fill="#FF003D" d="M949.3 79.9c-2.6 0-4.7-2.1-4.7-4.7V53.6h9.4v21.6c0 2.6-2.2 4.7-4.7 4.7Zm-3.8-25.4v20.6c0 2.1 1.7 3.7 3.7 3.7 2.1 0 3.7-1.7 3.7-3.7V54.5h-7.4Z"/><path fill="#FF003D" d="M932.999 74.6c-1 0-1.9-.3-2.8-.9-1-.7-1.7-1.8-1.9-3.1-.2-1.2.1-2.5.8-3.5l12.7-17.5 7.6 5.5-12.7 17.5c-.9 1.3-2.3 2-3.7 2Zm9.1-23.6-12.1 16.7c-.6.8-.8 1.8-.7 2.8.2 1 .7 1.9 1.5 2.4.8.6 1.8.8 2.8.7 1-.2 1.9-.7 2.4-1.5l12.1-16.7-6-4.4Z"/><path fill="#FF003D" d="M922.9 60.698c-2 0-3.8-1.3-4.5-3.2-.8-2.5.6-5.1 3-5.9l20.5-6.7 2.9 8.9-20.5 6.7c-.4.1-.9.2-1.4.2Zm-3.6-3.5c.6 2 2.8 3 4.7 2.4l19.6-6.4-2.3-7.1-19.6 6.4c-1.9.6-3 2.7-2.4 4.7Z"/><path fill="#FF003D" d="m942 50-20.5-6.7c-1.2-.4-2.2-1.2-2.7-2.3-.6-1.1-.7-2.4-.3-3.6.4-1.2 1.2-2.2 2.3-2.7 1.1-.6 2.4-.7 3.6-.3l20.5 6.7L942 50Zm-19.1-14.9c-.6 0-1.2.1-1.7.4-.9.5-1.6 1.2-1.9 2.2-.3 1-.2 2 .2 2.9.5.9 1.2 1.6 2.2 1.9l19.6 6.4 2.3-7.1-19.6-6.5c-.3-.1-.7-.2-1.1-.2Z"/><path fill="#FF003D" d="m941.8 45.2-12.7-17.5c-1.5-2.1-1.1-5 1-6.6 2.1-1.5 5-1.1 6.6 1l12.7 17.5-7.6 5.6ZM933 21.3c-.8 0-1.5.2-2.2.7-1.7 1.2-2 3.6-.8 5.2l12.1 16.7 6.1-4.4L936 22.8c-.7-1-1.9-1.5-3-1.5Z"/><path fill="#FF003D" d="M954 41.3h-9.4V19.7c0-2.6 2.1-4.7 4.7-4.7s4.7 2.1 4.7 4.7v21.6Zm-8.5-.9h7.5V19.8c0-2.1-1.7-3.7-3.7-3.7s-3.7 1.7-3.7 3.7v20.6h-.1Z"/><path fill="#5218FA" d="M967.999 21.599c-1.9-1.4-4.5-1-5.9.9l-12.4 17.1 6.8 5 12.5-17.1c1.3-1.9.9-4.5-1-5.9Z"/><path fill="#FF003D" d="m956.599 50-2.9-8.9 20.5-6.7c1.2-.4 2.5-.3 3.6.3s1.9 1.5 2.3 2.7c.4 1.2.3 2.5-.3 3.6s-1.5 1.9-2.7 2.3l-20.5 6.7Zm-1.8-8.3 2.3 7.1 19.6-6.4c1-.3 1.7-1 2.2-1.9.5-.9.5-1.9.2-2.9s-1-1.7-1.9-2.2c-.9-.5-1.9-.5-2.9-.2l-19.5 6.5Z"/><path fill="#FF003D" d="M975.599 60.698c-.5 0-1-.1-1.4-.2l-20.5-6.7 2.9-8.9 20.5 6.7c1.2.4 2.2 1.2 2.7 2.3.6 1.1.7 2.4.3 3.6-.7 1.9-2.5 3.2-4.5 3.2Zm-20.8-7.5 19.6 6.4c2 .6 4.1-.4 4.7-2.4.3-1 .2-2-.2-2.9-.5-.9-1.2-1.6-2.2-1.9l-19.6-6.4-2.3 7.2Z"/><path fill="#FF003D" d="M965.6 74.6c-1.5 0-2.9-.7-3.8-1.9l-12.7-17.5 7.6-5.5 12.7 17.5c1.5 2.1 1.1 5-1 6.6-.9.5-1.9.8-2.8.8Zm-15.2-19.2 12.1 16.7c1.2 1.7 3.6 2 5.2.8 1.7-1.2 2-3.6.8-5.2l-12-16.7-6.1 4.4ZM694.5.7h-93.4v93.4h93.4V.7Z"/><path fill="#fff" d="M647.799 85c-5.1 0-9.8-2-13.4-5.6-3.6-3.6-5.6-8.3-5.6-13.4s2-9.8 5.6-13.4c3.6-3.6 8.3-5.6 13.4-5.6s9.8 2 13.4 5.6c3.6 3.6 5.6 8.3 5.6 13.4s-2 9.8-5.6 13.4c-3.6 3.6-8.3 5.6-13.4 5.6Zm0-37.1c-10 0-18.1 8.1-18.1 18.1 0 10 8.1 18.1 18.1 18.1 10 0 18.1-8.1 18.1-18.1 0-10-8.1-18.1-18.1-18.1Z"/><path fill="#fff" d="M647.8 85c-5.1 0-10-1-14.6-2.9-4.5-1.9-8.5-4.6-11.9-8-3.4-3.4-6.2-7.5-8-11.9-2-4.6-2.9-9.5-2.9-14.6s1-10 2.9-14.6c1.9-4.5 4.6-8.5 8-11.9 3.4-3.4 7.5-6.2 11.9-8 4.6-2 9.5-2.9 14.6-2.9s10 1 14.6 2.9c4.5 1.9 8.5 4.6 11.9 8 3.4 3.4 6.2 7.5 8 11.9 2 4.6 2.9 9.5 2.9 14.6s-1 10-2.9 14.6c-1.9 4.5-4.6 8.5-8 11.9-3.4 3.4-7.5 6.2-11.9 8-4.6 1.9-9.5 2.9-14.6 2.9Zm0-74.2c-20.2 0-36.7 16.5-36.7 36.7 0 20.2 16.5 36.7 36.7 36.7 20.2 0 36.7-16.5 36.7-36.7 0-20.3-16.5-36.7-36.7-36.7Z"/><path fill="#5218FA" d="M647.8 85.4c-7.7 0-14.9-3-20.3-8.4s-8.4-12.6-8.4-20.3c0-7.7 3-14.9 8.4-20.3s12.6-8.4 20.3-8.4c7.7 0 14.9 3 20.3 8.4s8.4 12.6 8.4 20.3c0 7.7-3 14.9-8.4 20.3-5.4 5.5-12.6 8.4-20.3 8.4Zm0-56.4c-7.4 0-14.4 2.9-19.6 8.1-5.2 5.2-8.1 12.2-8.1 19.6 0 7.4 2.9 14.4 8.1 19.6 5.2 5.2 12.2 8.1 19.6 8.1 7.4 0 14.4-2.9 19.6-8.1 5.2-5.2 8.1-12.2 8.1-19.6 0-7.4-2.9-14.4-8.1-19.6-5.2-5.3-12.2-8.1-19.6-8.1Z"/><path fill="#5218FA" d="M647.8 85c5.357 0 9.7-4.343 9.7-9.7 0-5.358-4.343-9.7-9.7-9.7a9.7 9.7 0 0 0-9.7 9.7 9.7 9.7 0 0 0 9.7 9.7Z"/><path fill="#FF003D" d="M896.701 100.898h-93.4v93.4h93.4v-93.4Z"/><path fill="#fff" d="M846.201 151.399c-2.7-2.7-6.2-4.1-9.9-4.1-3.8 0-7.3 1.5-9.9 4.1-1 1-1.9 2.2-2.5 3.4-.1.3-.3.6-.4.8-.8 1.8-1.2 3.7-1.2 5.7 0 1.4.2 2.7.6 4 .1-.3.3-.6.4-.8-.3-1-.4-2.1-.4-3.2 0-1.7.3-3.3.9-4.8.1-.3.2-.6.4-.9 2.1-4.6 6.8-7.8 12.2-7.8 7.4 0 13.5 6 13.5 13.5 0 5.4-3.2 10.1-7.8 12.2-.3.1-.6.3-.9.4-1.5.6-3.1.9-4.8.9-1.1 0-2.2-.1-3.2-.4-.3.2-.5.3-.8.4 1.3.4 2.7.6 4 .6 2 0 3.9-.4 5.7-1.2.3-.1.6-.3.8-.4 1.2-.7 2.4-1.5 3.4-2.5 2.7-2.7 4.1-6.2 4.1-9.9-.1-3.8-1.6-7.3-4.2-10Z"/><path fill="#fff" d="M875.601 136.799c-1.4-3.3-3.4-6.3-6-8.8-2.6-2.6-5.5-4.6-8.8-6-3.4-1.5-7.1-2.2-10.8-2.2-3.8 0-7.4.7-10.8 2.2-3.3 1.4-6.3 3.4-8.8 6-2.6 2.6-4.6 5.5-6 8.8-1.5 3.4-2.2 7.1-2.2 10.8 0 2.8.4 5.5 1.2 8.1l.3.9c.2.6.4 1.2.7 1.8.5 1.2 1.1 2.3 1.7 3.4l.6-.3c-1.1-1.8-2-3.8-2.6-5.9l-.3-.9c-.6-2.3-1-4.7-1-7.2 0-15 12.2-27.2 27.2-27.2s27.2 12.2 27.2 27.2-12.2 27.3-27.2 27.3c-2.5 0-4.9-.3-7.2-1l-.9-.3c-2.1-.6-4-1.5-5.9-2.6l-.3.6c1.1.7 2.2 1.2 3.4 1.7.6.3 1.2.5 1.8.7l.9.3c2.6.8 5.3 1.2 8.1 1.2 3.8 0 7.4-.7 10.8-2.2 3.3-1.4 6.3-3.4 8.8-6 2.6-2.6 4.6-5.5 6-8.8 1.5-3.4 2.2-7.1 2.2-10.8 0-3.7-.6-7.4-2.1-10.8Z"/><path fill="#fff" d="M857.901 139.698c-4-4-9.2-6.1-14.8-6.1-5.6 0-10.9 2.2-14.8 6.1-4 4-6.1 9.2-6.1 14.8 0 3.1.7 6.1 1.9 8.8l.5-.5c-1.2-2.6-1.8-5.4-1.8-8.4 0-11.2 9.1-20.3 20.3-20.3 11.2 0 20.3 9.1 20.3 20.3 0 11.2-9.1 20.3-20.3 20.3-3 0-5.8-.6-8.4-1.8-.1.2-.3.3-.5.5 2.7 1.3 5.7 1.9 8.8 1.9 5.6 0 10.9-2.2 14.8-6.1 4-4 6.1-9.2 6.1-14.8.2-5.5-2-10.8-6-14.7Z"/><path fill="#000" d="M826.301 171.298c1.7 1.7 3.7 2.9 5.9 3.5-.9.4-1.8.6-2.8.6-4 0-7.2-3.2-7.2-7.2 0-1 .2-2 .6-2.8.6 2.2 1.8 4.3 3.5 5.9Z"/><path fill="#000" d="M834.301 173.497c-.4.4-.8.7-1.3.9-4.8-1.2-8.7-5-9.8-9.8.3-.5.6-.9.9-1.3 1 2.2 2.4 4.2 4.2 6 1.7 1.8 3.8 3.2 6 4.2Z"/><path fill="#000" d="M830.302 167.298c1.6 1.6 3.5 3.1 5.4 4.2-.3.5-.6 1-1 1.5-4.5-2-8.1-5.7-10.1-10.1.5-.4 1-.7 1.5-1 1.1 1.9 2.6 3.8 4.2 5.4Z"/><path fill="#000" d="M836.502 168.298c0 1-.2 1.9-.5 2.7-3.8-2.3-7.1-5.5-9.4-9.4.8-.3 1.7-.5 2.7-.5 4 0 7.2 3.2 7.2 7.2Z"/><path fill="#5218FA" d="M795 .7h-93.4v93.4H795V.7Z"/><path fill="#FF003D" d="m761.4 54.7-13.8-13.8 13.8-13.8 13.8 13.8-13.8 13.8Zm-12.5-13.8 12.5 12.5 12.5-12.5-12.5-12.5-12.5 12.5Z"/><path fill="#FF003D" d="m748.28 67.199 13.152-13.152-13.152-13.152-13.152 13.152 13.152 13.152Z"/><path fill="#FF003D" d="M748.3 67.8 734.5 54l13.8-13.8L762.1 54l-13.8 13.8ZM735.8 54l12.5 12.5L760.8 54l-12.5-12.5L735.8 54Z"/><path fill="#FF003D" d="m735.101 54.7-13.8-13.8 13.8-13.8 13.8 13.8-13.8 13.8Zm-12.4-13.8 12.5 12.5 12.5-12.5-12.5-12.5-12.5 12.5Z"/><path fill="#F4F1EB" d="M594.3 101h-93.4v93.4h93.4V101Z"/><path fill="#5218FA" d="m560.4 149.6 4.9 4.9 6.8-6.8-6.8-6.8-4.9 4.9h-4.2l-1.2-2.9 3-3h2.1c1.3 0 2.5-.5 3.4-1.4.9-.9 1.4-2.1 1.4-3.4 0-1.3-.5-2.5-1.4-3.4-.9-.9-2.1-1.4-3.4-1.4-1.3 0-2.5.5-3.4 1.4-.9.9-1.4 2.1-1.4 3.4v2.1l-3 3-2.9-1.2v-4.2l4.9-4.9-6.8-6.8-6.8 6.8 4.9 4.9v4.2l-2.9 1.2-3-3v-6.9h-9.6v9.6h6.9l3 3-1.2 2.9h-4.2l-4.9-4.9-6.8 6.8 6.8 6.8 4.9-4.9h4.2l1.2 2.9-3 3h-6.9v9.6h9.6v-6.9l3-3 2.9 1.2v4.2l-4.9 4.9 6.8 6.8 6.8-6.8-4.9-4.9v-4.2l2.9-1.2 3 3v6.9h9.6v-9.6H558l-3-3 1.2-2.9h4.2Zm-6.3 3.1 3.6 3.6h6.5v7.9h-7.9v-6.5l-3.6-3.6-4 1.6v5.1l4.6 4.6-5.6 5.6-5.6-5.6 4.6-4.6v-5.1l-4-1.6-3.6 3.6v6.5H531v-7.9h6.5l3.6-3.6-1.6-4h-5.1l-4.6 4.6-5.6-5.6 5.6-5.6 4.6 4.6h5.1l1.6-4-3.6-3.6H531v-7.9h7.9v6.5l3.6 3.6 4-1.6v-5.1L542 130l5.6-5.6 5.6 5.6-4.6 4.6v5.1l4 1.6 3.6-3.6v-2.5c0-1.1.4-2.1 1.2-2.8.7-.7 1.7-1.2 2.8-1.2 1.1 0 2.1.4 2.8 1.2.7.7 1.2 1.7 1.2 2.8 0 1.1-.4 2.1-1.2 2.8-.8.8-1.7 1.2-2.8 1.2h-2.5l-3.6 3.6 1.6 4h5.1l4.6-4.6 5.6 5.6-5.6 5.6-4.6-4.6h-5.1l-1.6 3.9Z"/><path fill="#000" d="M547.6 152.199a4.5 4.5 0 1 0 0-9 4.5 4.5 0 0 0 0 9Z"/><path fill="#5218FA" d="M995.701 100.898h-93.4v93.4h93.4v-93.4Z"/><path fill="#fff" d="m944.701 124.399-.1-.2h-.3l-.3.5-4.1 7-.1.3.1.2 4 6.9.1.2.3.5h.3l.1-.2 4.4-7.6-4.4-7.6Z"/><path fill="#fff" d="m944.401 139.098-.1-.2-4-6.9 4-6.9.1-.2 4.1 7.1-4.1 7.1Z"/><path fill="#fff" d="m944.4 139.099-.1-.2-4-6.9-.1-.3h-9l-.2.3.2.2 4.3 7.6H944.6l.1-.2-.3-.5Z"/><path fill="#fff" d="m935.799 139.299-4.1-7.1h8.2l4 6.9.1.2h-8.2Z"/><path fill="#FBBE28" d="M944.6 124.199h-9.1l-4.3 7.5-.2.3.2.2h9l.1-.2 4-6.9.1-.2.3-.5-.1-.2Z"/><path fill="#FBBE28" d="m931.699 131.699 4.1-7h8.2l-4.1 7h-8.2Z"/><path fill="#fff" d="m953.699 140.099-.1-.3h-.3l-.3.5-4.1 7.1-.1.3.1.3 4 6.9.1.2.3.5h.3l.1-.3 4.4-7.6-4.4-7.6Zm-.3 14.6-.1-.2-4-6.9 4-6.9.1-.2 4.1 7.1-4.1 7.1Z"/><path fill="#fff" d="m953.4 154.699-.1-.2-4-6.9-.1-.3h-9l-.1.3.1.3 4.4 7.6h9l.1-.3-.3-.5Zm-8.6.2-4.1-7.1h8.1l4 6.9.1.2h-8.1Z"/><path fill="#fff" d="M953.6 139.799h-9l-4.4 7.6-.1.3.1.3h9l.1-.3 4-6.9.1-.2.3-.5-.1-.3Zm-12.8 7.6 4.1-7.1h8.1l-4.1 7.1h-8.1Z"/><path fill="#fff" d="m935.701 140.099-.1-.3h-.3l-.3.5-4.1 7.1-.1.3.1.3 4 6.9.1.2.3.5h.3l.1-.3 4.4-7.6-4.4-7.6Zm-.3 14.6-.1-.2-4-6.9 4-6.9.1-.2 4.1 7.1-4.1 7.1Z"/><path fill="#fff" d="m935.4 154.699-.1-.2-4-6.9-.1-.3h-9l-.1.3.1.3 4.4 7.6h9l.1-.3-.3-.5Zm-8.6.2-4.1-7.1h8.1l4 6.9.1.2h-8.1Z"/><path fill="#fff" d="M935.5 139.799h-9l-4.4 7.6-.1.3.1.3h9l.1-.3 4-6.9.1-.2.3-.5-.1-.3Zm-12.8 7.6 4.1-7.1h8.1l-4.1 7.1h-8.1ZM971.8 140.099l-.1-.3h-.3l-.3.5-4.1 7.1-.1.3.1.3 4 6.9.1.2.3.5h.3l.1-.3 4.4-7.6-4.4-7.6Zm-.3 14.6-.1-.2-4-6.9 4-6.9.1-.2 4.1 7.1-4.1 7.1Z"/><path fill="#fff" d="m971.499 154.699-.1-.2-4-6.9-.1-.3h-9l-.1.3.1.3 4.4 7.6h9l.1-.3-.3-.5Zm-8.6.2-4.1-7.1h8.1l4 6.9.1.2h-8.1Z"/><path fill="#fff" d="M971.6 139.799h-9l-4.4 7.6-.1.3.1.3h9l.1-.3 4-6.9.1-.2.3-.5-.1-.3Zm-12.8 7.6 4.1-7.1h8.1l-4.1 7.1h-8.1Z"/><path fill="#fff" d="m962.699 124.4-.1-.3h-.3l-.3.5-4.1 7.1-.1.3.1.3 4 6.9.1.2.3.5h.3l.1-.3 4.4-7.6-4.4-7.6Zm-.2 14.7-.1-.2-4-6.9 4-6.9.1-.2 4.1 7.1-4.1 7.1Z"/><path fill="#fff" d="m962.499 139.099-.1-.2-4-6.9-.1-.3h-9l-.1.3.1.3 4.4 7.6h9l.1-.3-.3-.5Zm-8.6.2-4.1-7.1h8.1l4 6.9.1.2h-8.1Z"/><path fill="#fff" d="M962.6 124.199h-9l-4.4 7.6-.1.3.1.3h9l.1-.3 4-6.9.1-.2.3-.5-.1-.3Zm-12.8 7.5 4.1-7.1h8.1l-4.1 7.1h-8.1ZM944.699 155.698l-.1-.3h-.3l-.3.5-4.1 7.1-.1.3.1.3 4 6.9.1.2.3.5h.3l.1-.3 4.4-7.6-4.4-7.6Zm-.3 14.6-.1-.2-4-6.9 4-6.9.1-.2 4.1 7.1-4.1 7.1Z"/><path fill="#fff" d="m944.4 170.298-.1-.2-4-6.9-.1-.3h-9l-.1.3.1.3 4.4 7.6h9l.1-.3-.3-.5Zm-8.6.3-4.1-7.1h8.1l4 6.9.1.2h-8.1Z"/><path fill="#fff" d="M944.6 155.398h-9l-4.4 7.6-.1.3.1.3h9l.1-.3 4-6.9.1-.2.3-.5-.1-.3Zm-12.9 7.6 4.1-7.1h8.1l-4.1 7.1h-8.1ZM962.699 155.698l-.1-.3h-.3l-.3.5-4.1 7.1-.1.3.1.3 4 6.9.1.2.3.5h.3l.1-.3 4.4-7.6-4.4-7.6Zm-.2 14.6-.1-.2-4-6.9 4-6.9.1-.2 4.1 7.1-4.1 7.1Z"/><path fill="#fff" d="m962.499 170.298-.1-.2-4-6.9-.1-.3h-9l-.1.3.1.3 4.4 7.6h9l.1-.3-.3-.5Zm-8.6.3-4.1-7.1h8.1l4 6.9.1.2h-8.1Z"/><path fill="#fff" d="M962.6 155.398h-9l-4.4 7.6-.1.3.1.3h9l.1-.3 4-6.9.1-.2.3-.5-.1-.3Zm-12.8 7.6 4.1-7.1h8.1l-4.1 7.1h-8.1Z"/><path fill="#FBBE28" d="M795 100.898h-93.4v93.4H795v-93.4Z"/><path fill="#5218FA" d="m771.799 145.699-2.9-8.8-16 5.2v-16.8h-9.3v16.8l-15.9-5.2-2.9 8.8 16 5.2-9.9 13.6 7.5 5.4 9.9-13.5 9.8 13.6 7.5-5.5-9.8-13.6 16-5.2Z"/><path fill="#FBBE28" d="M594 .7h-93.4v93.4H594V.7Z"/><path fill="#FF003D" d="M547.3 61.298c7.842 0 14.2-6.357 14.2-14.2 0-7.842-6.358-14.2-14.2-14.2-7.843 0-14.2 6.358-14.2 14.2 0 7.843 6.357 14.2 14.2 14.2Z"/><path fill="#000" d="M585.8 46.798c-.2-.2-.4-.3-.6-.5-5.1-4.4-11-7.8-17.3-10.2-6.5-2.5-13.4-3.7-20.4-3.7h-.4c-7 0-13.9 1.3-20.4 3.7-6.3 2.4-12.1 5.8-17.3 10.2-.2.2-.4.3-.6.5h-8.3v1.3h8.3c.2.2.4.3.6.5 6.6 5.6 14.5 9.8 22.8 12l.5.1c4.7 1.2 9.7 1.8 14.6 1.8s9.9-.6 14.6-1.8l.5-.1c8.3-2.2 16.2-6.4 22.8-12 .2-.2.4-.3.6-.5h8.3v-1.3h-8.3Zm-24.7 1.1v.1c0 .3 0 .7-.1 1v.6c-1 6.6-6.8 11.7-13.6 11.7-7.1 0-13-5.4-13.7-12.3v-1.4c0-7.6 6.2-13.8 13.8-13.8 7.6 0 13.8 6.2 13.8 13.8-.2 0-.2.2-.2.3Zm-50.9-.3-.2-.2.2-.2c8.5-7.3 19-11.8 30.1-13.2-4.8 2.5-8.1 7.6-8.1 13.4v11.8c-8-2.2-15.6-6.2-22-11.6Zm74.2 0c-6.4 5.4-13.9 9.4-22 11.6v-11.7c0-5.8-3.3-10.8-8.1-13.4 11.1 1.4 21.5 5.9 30.1 13.2l.2.2c-.1 0-.2.1-.2.1ZM496.101 301.299h-93.4v93.4h93.4v-93.4Z"/><path fill="#FBBE28" d="M437.901 322.398h-14.1v14.1h14.1v-14.1Z"/><path fill="#fff" d="M475.502 336.898h-15v-15h15v15Zm-14.1-.9h13.1v-13.1h-13.1v13.1Z"/><path fill="#FF003D" d="M456.5 322.398h-14.1v14.1h14.1v-14.1Z"/><path fill="#fff" d="M438.301 374.1h-15v-15h15v15Zm-14-1h13.1V360h-13.1v13.1ZM475.502 374.1h-15v-15h15v15Zm-14.1-1h13.1V360h-13.1v13.1ZM456.9 374.1h-15v-15h15v15Zm-14-1H456V360h-13.1v13.1ZM438.301 355.498h-15v-15h15v15Zm-14-1h13.1v-13.1h-13.1v13.1ZM475.502 355.498h-15v-15h15v15Zm-14.1-1h13.1v-13.1h-13.1v13.1Z"/><path fill="#5218FA" d="M456.5 340.998h-14.1v14.1h14.1v-14.1Z"/><path fill="#000" d="M696.9 201.1h-93.4v93.4h93.4v-93.4Z"/><path fill="#FBBE28" d="M670 236.699c0-4.8-3.9-8.7-8.7-8.7h-8.7v-8.7h8.7c3.2 0 6.1.8 8.7 2.3 2.6 1.5 4.8 3.7 6.3 6.3 1.5 2.5 2.3 5.5 2.3 8.7v8.7H670v-8.6Z"/><path fill="#F4F1EB" d="M639.201 228c-4.8 0-8.7 3.9-8.7 8.7v8.7h-8.7v-8.7c0-3.2.8-6.1 2.3-8.7 1.5-2.6 3.7-4.8 6.3-6.3 2.5-1.5 5.5-2.3 8.7-2.3h8.7v8.7h-8.6v-.1Z"/><path fill="#fff" d="M661.401 276.699h-9.1v-9.6h9.1c2.2 0 4.2-.9 5.8-2.4 1.5-1.5 2.4-3.6 2.4-5.8v-9.1h9.6v9.1c0 3.1-.8 6.2-2.4 8.9-1.6 2.7-3.8 5-6.5 6.5-2.7 1.6-5.8 2.4-8.9 2.4Zm-8.2-.9h8.2c3 0 5.9-.8 8.4-2.3 2.6-1.5 4.7-3.6 6.2-6.2s2.3-5.5 2.3-8.4v-8.2h-7.7v8.2c0 5-4.1 9.1-9.1 9.1h-8.2v7.8h-.1Z"/><path fill="#F4F1EB" d="M797.4 201.1H704v93.4h93.4v-93.4Z"/><path fill="#FF003D" d="M750.7 280.2c-2.6 0-4.7-2.1-4.7-4.7v-21.6h9.4v21.6c0 2.6-2.1 4.7-4.7 4.7Zm-3.7-25.3v20.6c0 2.1 1.7 3.7 3.7 3.7 2.1 0 3.7-1.7 3.7-3.7v-20.6H747Z"/><path fill="#FF003D" d="M734.4 274.9c-1 0-1.901-.3-2.801-.9-1-.7-1.7-1.8-1.9-3.1-.2-1.2.1-2.5.8-3.5l12.7-17.5 7.6 5.5-12.6 17.6c-.9 1.3-2.299 1.9-3.799 1.9Zm9.099-23.6L731.4 268c-.6.8-.801 1.8-.701 2.8.2 1 .7 1.9 1.5 2.4.8.6 1.8.8 2.8.7 1-.2 1.901-.7 2.401-1.5l12.099-16.7-6-4.4Z"/><path fill="#FF003D" d="M724.4 261.099c-2 0-3.8-1.3-4.5-3.2-.8-2.5.6-5.1 3-5.9l20.5-6.7 2.9 8.9-20.5 6.7c-.5.1-.9.2-1.4.2Zm-3.6-3.6c.6 2 2.8 3 4.7 2.4l19.6-6.4-2.3-7.1-19.6 6.4c-1.9.6-3 2.8-2.4 4.7Z"/><path fill="#FF003D" d="m743.5 250.401-20.5-6.7c-1.2-.4-2.2-1.2-2.7-2.3-.6-1.1-.7-2.4-.3-3.6.4-1.2 1.2-2.2 2.3-2.7 1.1-.6 2.4-.7 3.6-.3l20.5 6.7-2.9 8.9Zm-19.1-14.9c-.6 0-1.2.1-1.7.4-.9.5-1.6 1.2-1.9 2.2-.3 1-.2 2 .2 2.9.4.9 1.2 1.6 2.2 1.9l19.6 6.4 2.3-7.1-19.6-6.4c-.3-.3-.7-.3-1.1-.3Z"/><path fill="#FF003D" d="m743.3 245.6-12.7-17.5c-1.5-2.1-1.1-5 1-6.6 2.1-1.5 5-1.1 6.6 1l12.7 17.5-7.6 5.6Zm-8.9-24c-.8 0-1.5.2-2.2.7-1.7 1.2-2 3.6-.8 5.2l12.1 16.7 6.1-4.4-12.1-16.7c-.7-.9-1.9-1.5-3.1-1.5Z"/><path fill="#FF003D" d="M755.4 241.7H746v-21.6c0-2.6 2.1-4.7 4.7-4.7s4.7 2.1 4.7 4.7v21.6Zm-8.4-1h7.5v-20.6c0-2.1-1.7-3.7-3.7-3.7s-3.7 1.7-3.7 3.7v20.6h-.1Z"/><path fill="#5218FA" d="M769.499 221.999c-1.9-1.4-4.5-1-5.9.9l-12.4 17.1 6.8 5 12.4-17.1c1.4-1.9 1-4.6-.9-5.9Z"/><path fill="#FF003D" d="m758 250.401-2.9-8.9 20.5-6.7c1.2-.4 2.5-.3 3.6.3s1.9 1.5 2.3 2.7c.4 1.2.3 2.5-.3 3.6s-1.5 1.9-2.7 2.3l-20.5 6.7Zm-1.7-8.3 2.3 7.1 19.6-6.4c1-.3 1.7-1 2.2-1.9.5-.9.5-1.9.2-2.9s-1-1.7-1.9-2.2c-.9-.5-1.9-.5-2.9-.2l-19.5 6.5Z"/><path fill="#FF003D" d="M777.099 261.099c-.5 0-1-.1-1.4-.2l-20.5-6.7 2.9-8.9 20.5 6.7c1.2.4 2.2 1.2 2.7 2.3.6 1.1.7 2.4.3 3.6-.7 1.9-2.5 3.2-4.5 3.2Zm-20.8-7.5 19.6 6.4c2 .6 4.1-.4 4.7-2.4.3-1 .2-2-.2-2.9-.5-.9-1.2-1.6-2.2-1.9l-19.6-6.4-2.3 7.2Z"/><path fill="#FF003D" d="M767.1 274.9c-1.5 0-2.9-.7-3.8-1.9l-12.7-17.5 7.6-5.5 12.7 17.5c1.5 2.1 1.1 5-1 6.6-.9.5-1.9.8-2.8.8Zm-15.2-19.2 12.1 16.7c1.2 1.7 3.6 2 5.2.8 1.7-1.2 2-3.6.8-5.2l-12.1-16.7-6 4.4ZM496 201.1h-93.4v93.4H496v-93.4Z"/><path fill="#fff" d="M449.299 285.299c-5.1 0-9.8-2-13.4-5.6-3.6-3.6-5.6-8.3-5.6-13.4s2-9.8 5.6-13.4c3.6-3.6 8.3-5.6 13.4-5.6s9.8 2 13.4 5.6c3.6 3.6 5.6 8.3 5.6 13.4s-2 9.8-5.6 13.4c-3.6 3.7-8.4 5.6-13.4 5.6Zm0-37.1c-10 0-18.1 8.1-18.1 18.1 0 10 8.1 18.1 18.1 18.1 10 0 18.1-8.1 18.1-18.1 0-10-8.1-18.1-18.1-18.1Z"/><path fill="#fff" d="M449.3 285.3c-5.1 0-10-1-14.6-2.9-4.5-1.9-8.5-4.6-11.9-8-3.4-3.4-6.2-7.5-8-11.9-2-4.6-2.9-9.5-2.9-14.6s1-10 2.9-14.6c1.9-4.5 4.6-8.5 8-11.9 3.4-3.4 7.5-6.2 11.9-8 4.6-2 9.5-2.9 14.6-2.9s10 1 14.6 2.9c4.5 1.9 8.5 4.6 11.9 8 3.4 3.4 6.2 7.5 8 11.9 2 4.6 2.9 9.5 2.9 14.6s-1 10-2.9 14.6c-1.9 4.5-4.6 8.5-8 11.9-3.4 3.4-7.5 6.2-11.9 8-4.6 1.9-9.6 2.9-14.6 2.9Zm0-74.2c-20.2 0-36.7 16.5-36.7 36.7 0 20.2 16.5 36.7 36.7 36.7 20.2 0 36.7-16.5 36.7-36.7 0-20.2-16.5-36.7-36.7-36.7Z"/><path fill="#5218FA" d="M449.3 285.8c-7.7 0-14.9-3-20.3-8.4s-8.4-12.6-8.4-20.3c0-7.7 3-14.9 8.4-20.3s12.6-8.4 20.3-8.4c7.7 0 14.9 3 20.3 8.4s8.4 12.6 8.4 20.3c0 7.7-3 14.9-8.4 20.3s-12.7 8.4-20.3 8.4Zm0-56.5c-7.4 0-14.4 2.9-19.6 8.1-5.2 5.2-8.1 12.2-8.1 19.6 0 7.4 2.9 14.4 8.1 19.6 5.2 5.2 12.2 8.1 19.6 8.1 7.4 0 14.4-2.9 19.6-8.1 5.2-5.2 8.1-12.2 8.1-19.6 0-7.4-2.9-14.4-8.1-19.6-5.2-5.2-12.2-8.1-19.6-8.1Z"/><path fill="#5218FA" d="M449.3 285.3a9.7 9.7 0 0 0 9.7-9.7c0-5.357-4.343-9.7-9.7-9.7a9.7 9.7 0 0 0-9.7 9.7c0 5.358 4.342 9.7 9.7 9.7Z"/><path fill="#FF003D" d="M698.101 301.299h-93.4v93.4h93.4v-93.4Z"/><path fill="#fff" d="M647.701 351.799c-2.7-2.7-6.2-4.1-9.9-4.1s-7.3 1.5-9.9 4.1c-1 1-1.9 2.2-2.5 3.4-.1.3-.3.6-.4.8-.8 1.8-1.2 3.7-1.2 5.7 0 1.4.2 2.7.6 4 .1-.3.3-.6.4-.8-.3-1-.4-2.1-.4-3.2 0-1.7.3-3.3.9-4.8.1-.3.2-.6.4-.9 2.1-4.6 6.8-7.8 12.2-7.8 7.4 0 13.5 6 13.5 13.5 0 5.4-3.2 10.1-7.8 12.2-.3.1-.6.3-.9.4-1.5.6-3.1.9-4.8.9-1.1 0-2.2-.1-3.2-.4-.3.2-.5.3-.8.4 1.3.4 2.7.6 4 .6 2 0 3.9-.4 5.7-1.2.3-.1.6-.3.8-.4 1.2-.7 2.4-1.5 3.4-2.5 2.7-2.7 4.1-6.2 4.1-9.9-.1-3.8-1.6-7.3-4.2-10Z"/><path fill="#fff" d="M677.101 337.1c-1.4-3.3-3.4-6.3-6-8.8-2.6-2.6-5.5-4.6-8.8-6-3.4-1.5-7.1-2.2-10.8-2.2-3.7 0-7.4.7-10.8 2.2-3.3 1.4-6.3 3.4-8.8 6-2.6 2.6-4.6 5.5-6 8.8-1.5 3.4-2.2 7.1-2.2 10.8 0 2.8.4 5.5 1.2 8.1l.3.9c.2.6.4 1.2.7 1.8.5 1.2 1.1 2.3 1.7 3.4l.6-.3c-1.1-1.8-2-3.8-2.6-5.9l-.3-.9c-.6-2.3-1-4.7-1-7.2 0-15 12.2-27.2 27.2-27.2s27.2 12.2 27.2 27.2-12.2 27.2-27.2 27.2c-2.5 0-4.9-.3-7.2-1l-.9-.3c-2.1-.6-4-1.5-5.9-2.6l-.3.6c1.1.7 2.2 1.2 3.4 1.7.6.3 1.2.5 1.8.7l.9.3c2.6.8 5.3 1.2 8.1 1.2 3.8 0 7.4-.7 10.8-2.2 3.3-1.4 6.3-3.4 8.8-6 2.6-2.6 4.6-5.5 6-8.8 1.5-3.4 2.2-7.1 2.2-10.8 0-3.7-.6-7.2-2.1-10.7Z"/><path fill="#fff" d="M659.401 339.998c-4-4-9.2-6.1-14.8-6.1-5.6 0-10.9 2.2-14.8 6.1-4 4-6.1 9.2-6.1 14.8 0 3.1.7 6.1 1.9 8.8l.5-.5c-1.2-2.6-1.8-5.4-1.8-8.4 0-11.2 9.1-20.3 20.3-20.3 11.2 0 20.3 9.1 20.3 20.3 0 11.2-9.1 20.3-20.3 20.3-3 0-5.8-.6-8.4-1.8-.1.2-.3.3-.5.5 2.7 1.3 5.7 1.9 8.8 1.9 5.6 0 10.9-2.2 14.8-6.1 4-4 6.1-9.2 6.1-14.8.1-5.4-2-10.7-6-14.7Z"/><path fill="#000" d="M627.801 371.699c1.7 1.7 3.7 2.9 5.9 3.5-.9.4-1.8.6-2.8.6-4 0-7.2-3.2-7.2-7.2 0-1 .2-2 .6-2.8.6 2.2 1.8 4.2 3.5 5.9Z"/><path fill="#000" d="M635.702 373.899c-.4.4-.8.7-1.3.9-4.8-1.2-8.7-5-9.8-9.8.3-.5.6-.9.9-1.3 1 2.2 2.4 4.2 4.2 6 1.8 1.7 3.9 3.1 6 4.2Z"/><path fill="#000" d="M631.802 367.699c1.6 1.6 3.5 3.1 5.4 4.2-.3.5-.6 1-1 1.5-4.5-2-8.1-5.7-10.1-10.1.5-.4 1-.7 1.5-1 1.1 1.9 2.5 3.7 4.2 5.4Z"/><path fill="#000" d="M638.002 368.598c0 1-.2 1.9-.5 2.7-3.8-2.3-7.1-5.5-9.4-9.4.8-.3 1.7-.5 2.7-.5 4 0 7.2 3.3 7.2 7.2Z"/><path fill="#5218FA" d="M596.4 201.1H503v93.4h93.4v-93.4Z"/><path fill="#FF003D" d="m562.9 255-13.8-13.8 13.8-13.8 13.8 13.8-13.8 13.8Zm-12.5-13.8 12.5 12.5 12.5-12.5-12.5-12.5-12.5 12.5Z"/><path fill="#FF003D" d="m549.733 267.539 13.152-13.152-13.152-13.152-13.152 13.152 13.152 13.152Z"/><path fill="#FF003D" d="M549.8 268.2 536 254.4l13.8-13.8 13.8 13.8-13.8 13.8Zm-12.5-13.8 12.5 12.5 12.5-12.5-12.5-12.5-12.5 12.5Z"/><path fill="#FF003D" d="m536.601 255-13.8-13.8 13.8-13.8 13.8 13.8-13.8 13.8Zm-12.5-13.8 12.5 12.5 12.5-12.5-12.5-12.5-12.5 12.5Z"/><path fill="#F4F1EB" d="M395.701 301.4h-93.4v93.4h93.4v-93.4Z"/><path fill="#5218FA" d="m361.9 350 4.9 4.9 6.8-6.8-6.8-6.8-4.9 4.9h-4.2l-1.2-2.9 3-3h2.1c1.3 0 2.5-.5 3.4-1.4.9-.9 1.4-2.1 1.4-3.4 0-1.3-.5-2.5-1.4-3.4-.9-.9-2.1-1.4-3.4-1.4-1.3 0-2.5.5-3.4 1.4-.9.9-1.4 2.1-1.4 3.4v2.1l-3 3-2.9-1.2v-4.2l4.9-4.9-6.8-6.8-6.8 6.8 4.9 4.9v4.2l-2.9 1.2-3-3v-6.9h-9.6v9.6h6.9l3 3-1.2 2.9h-4.2l-4.9-4.9-6.8 6.8 6.8 6.8 4.9-4.9h4.2l1.2 2.9-3 3h-6.9v9.6h9.6v-6.9l3-3 2.9 1.2v4.2l-4.9 4.9 6.8 6.8 6.8-6.8-4.9-4.9v-4.2l2.9-1.2 3 3v6.9h9.6v-9.6h-6.9l-3-3 1.2-2.9h4.2Zm-6.3 3.1 3.6 3.6h6.5v7.9h-7.9v-6.5l-3.6-3.6-4 1.6v5.1l4.6 4.6-5.6 5.6-5.6-5.6 4.6-4.6v-5.1l-4-1.6-3.6 3.6v6.5h-7.9v-7.9h6.5l3.6-3.6-1.6-4h-5.1l-4.6 4.6-5.6-5.6 5.6-5.6 4.6 4.6h5.1l1.6-4-3.6-3.6h-6.5v-7.9h7.9v6.5l3.6 3.6 4-1.6V335l-4.6-4.6 5.6-5.6 5.6 5.6-4.6 4.6v5.1l4 1.6 3.6-3.6v-2.5c0-1.1.4-2.1 1.2-2.8.7-.7 1.7-1.2 2.8-1.2 1.1 0 2.1.4 2.8 1.2.7.7 1.2 1.7 1.2 2.8 0 1.1-.4 2.1-1.2 2.8-.8.8-1.7 1.2-2.8 1.2h-2.5l-3.6 3.6 1.6 4h5.1l4.6-4.6 5.6 5.6-5.6 5.6-4.6-4.6h-5.1l-1.7 3.9Z"/><path fill="#000" d="M349.102 352.6a4.5 4.5 0 1 0 0-9 4.5 4.5 0 0 0 0 9Z"/><path fill="#5218FA" d="M797.201 301.299h-93.4v93.4h93.4v-93.4Z"/><path fill="#fff" d="m746.201 324.8-.2-.3h-.2l-.3.5-4.1 7.1-.2.3.2.2 4 6.9.1.2.3.5h.2l.2-.3 4.4-7.5-4.4-7.6Z"/><path fill="#fff" d="m745.901 339.401-.1-.2-4-6.8 4-6.9.1-.2 4.1 7.1-4.1 7Z"/><path fill="#fff" d="m745.9 339.4-.1-.2-4-6.8-.1-.3h-9l-.2.3.2.2 4.3 7.6h9l.2-.3-.3-.5Z"/><path fill="#fff" d="m737.299 339.7-4.1-7.1h8.2l4 6.9.1.2h-8.2Z"/><path fill="#FBBE28" d="M746 324.5h-9l-4.3 7.6-.2.3.2.2h9l.1-.2 4-6.9.1-.2.3-.5-.2-.3Z"/><path fill="#FBBE28" d="m733.199 332.1 4.1-7.1h8.2l-4.1 7.1h-8.2Z"/><path fill="#fff" d="m755.199 340.4-.1-.3h-.3l-.3.5-4.1 7.1-.1.3.1.3 4 6.9.1.2.3.5h.3l.1-.3 4.4-7.6-4.4-7.6Zm-.3 14.6-.1-.2-4-6.9 4-6.9.1-.2 4.1 7.1-4.1 7.1Z"/><path fill="#fff" d="m754.9 355-.1-.2-4-6.9-.1-.3h-9l-.1.3.1.3 4.4 7.6h9l.1-.3-.3-.5Zm-8.6.3-4.1-7.1h8.1l4 6.9.1.2h-8.1Z"/><path fill="#fff" d="M755.1 340.199h-9l-4.4 7.6-.1.3.1.3h9l.1-.3 4-6.9.1-.2.3-.5-.1-.3Zm-12.8 7.5 4.1-7.1h8.1l-4.1 7.1h-8.1ZM737.201 340.4l-.1-.3h-.3l-.3.5-4.1 7.1-.1.3.1.3 4 6.9.1.2.3.5h.3l.1-.3 4.4-7.6-4.4-7.6Zm-.3 14.6-.1-.2-4-6.9 4-6.9.1-.2 4.1 7.1-4.1 7.1Z"/><path fill="#fff" d="m736.9 355-.1-.2-4-6.9-.1-.3h-9l-.1.3.1.3 4.4 7.6h9l.1-.3-.3-.5Zm-8.6.3-4.1-7.1h8.1l4 6.9.1.2h-8.1Z"/><path fill="#fff" d="M737 340.199h-9l-4.4 7.6-.1.3.1.3h9l.1-.3 4-6.9.1-.2.3-.5-.1-.3Zm-12.8 7.5 4.1-7.1h8.1l-4.1 7.1h-8.1ZM773.3 340.4l-.1-.3h-.3l-.3.5-4.1 7.1-.1.3.1.3 4 6.9.1.2.3.5h.3l.1-.3 4.4-7.6-4.4-7.6ZM773 355l-.1-.2-4-6.9 4-6.9.1-.2 4.1 7.1-4.1 7.1Z"/><path fill="#fff" d="m772.999 355-.1-.2-4-6.9-.1-.3h-9l-.1.3.1.3 4.4 7.6h9l.1-.3-.3-.5Zm-8.6.3-4.1-7.1h8.1l4 6.9.1.2h-8.1Z"/><path fill="#fff" d="M773.1 340.199h-9l-4.4 7.6-.1.3.1.3h9l.1-.3 4-6.9.1-.2.3-.5-.1-.3Zm-12.8 7.5 4.1-7.1h8.1l-4.1 7.1h-8.1Z"/><path fill="#fff" d="m764.199 324.8-.1-.3h-.3l-.3.5-4.1 7.1-.1.3.1.3 4 6.9.1.2.3.5h.3l.1-.3 4.4-7.6-4.4-7.6Zm-.3 14.6-.1-.2-4-6.9 4-6.9.1-.2 4.1 7.1-4.1 7.1Z"/><path fill="#fff" d="m763.9 339.4-.1-.2-4-6.9-.1-.3h-9l-.1.3.1.3 4.4 7.6h9l.1-.3-.3-.5Zm-8.5.3-4.1-7.1h8.1l4 6.9.1.2h-8.1Z"/><path fill="#fff" d="M764.1 324.5h-9l-4.4 7.6-.1.3.1.3h9l.1-.3 4-6.9.1-.2.3-.5-.1-.3Zm-12.8 7.6 4.1-7.1h8.1l-4.1 7.1h-8.1ZM746.201 355.999l-.1-.3h-.3l-.3.5-4.1 7.1-.1.3.1.3 4 6.9.1.2.3.5h.3l.1-.3 4.4-7.6-4.4-7.6Zm-.3 14.7-.1-.2-4-6.9 4-6.9.1-.2 4.1 7.1-4.1 7.1Z"/><path fill="#fff" d="m745.9 370.699-.1-.2-4-6.9-.1-.3h-9l-.1.3.1.3 4.4 7.6h9l.1-.3-.3-.5Zm-8.6.2-4.1-7.1h8.1l4 6.9.1.2h-8.1Z"/><path fill="#fff" d="M746 355.799h-9l-4.4 7.6-.1.3.1.3h9l.1-.3 4-6.9.1-.2.3-.5-.1-.3Zm-12.8 7.6 4.1-7.1h8.1l-4.1 7.1h-8.1ZM764.199 355.999l-.1-.3h-.3l-.3.5-4.1 7.1-.1.3.1.3 4 6.9.1.2.3.5h.3l.1-.3 4.4-7.6-4.4-7.6Zm-.3 14.7-.1-.2-4-6.9 4-6.9.1-.2 4.1 7.1-4.1 7.1Z"/><path fill="#fff" d="m763.9 370.699-.1-.2-4-6.9-.1-.3h-9l-.1.3.1.3 4.4 7.6h9l.1-.3-.3-.5Zm-8.5.2-4.1-7.1h8.1l4 6.9.1.2h-8.1Z"/><path fill="#fff" d="M764.1 355.799h-9l-4.4 7.6-.1.3.1.3h9l.1-.3 4-6.9.1-.2.3-.5-.1-.3Zm-12.8 7.6 4.1-7.1h8.1l-4.1 7.1h-8.1Z"/><path fill="#FBBE28" d="M596.4 301.299H503v93.4h93.4v-93.4Z"/><path fill="#5218FA" d="m573.201 346.1-2.8-8.8-16 5.1v-16.7l-9.3-.1v16.8l-15.9-5.2-2.9 8.9 16 5.2-9.9 13.6 7.5 5.4 9.9-13.6 9.8 13.6 7.5-5.4-9.8-13.6 15.9-5.2Z"/><path fill="#FBBE28" d="M395.5 201.1h-93.4v93.4h93.4v-93.4Z"/><path fill="#FF003D" d="M348.8 261.699c7.842 0 14.2-6.358 14.2-14.2 0-7.843-6.358-14.2-14.2-14.2-7.843 0-14.2 6.357-14.2 14.2 0 7.842 6.357 14.2 14.2 14.2Z"/><path fill="#000" d="M387.2 247.199c-.2-.2-.4-.3-.6-.5-5.1-4.4-11-7.8-17.3-10.2-6.5-2.5-13.4-3.7-20.4-3.7h-.4c-7 0-13.9 1.3-20.4 3.7-6.3 2.4-12.1 5.8-17.3 10.2-.2.2-.4.3-.6.5h-8.3v1.3h8.3c.2.2.4.3.6.5 6.6 5.6 14.5 9.8 22.8 12l.5.1c4.7 1.2 9.7 1.8 14.6 1.8s9.9-.6 14.6-1.8l.5-.1c8.3-2.2 16.2-6.4 22.8-12 .2-.2.4-.3.6-.5h8.3v-1.3h-8.3Zm-24.6 1.1v.1c0 .3 0 .7-.1 1v.6c-1 6.6-6.8 11.7-13.6 11.7-7.1 0-13-5.4-13.7-12.3v-1.4c0-7.6 6.2-13.8 13.8-13.8 7.6 0 13.8 6.2 13.8 13.8-.2 0-.2.1-.2.3Zm-50.9-.3-.2-.2.2-.2c8.5-7.3 19-11.8 30.1-13.2-4.8 2.5-8.1 7.6-8.1 13.4v11.8c-8-2.2-15.6-6.2-22-11.6Zm74.1 0c-6.4 5.4-13.9 9.4-22 11.6v-11.8c0-5.8-3.3-10.8-8.1-13.4 11.1 1.4 21.5 5.9 30.1 13.2l.2.2c0 .1-.1.1-.2.2ZM496.101 301.299h-93.4v93.4h93.4v-93.4Z"/><path fill="#FBBE28" d="M437.901 322.398h-14.1v14.1h14.1v-14.1Z"/><path fill="#fff" d="M475.502 336.898h-15v-15h15v15Zm-14.1-.9h13.1v-13.1h-13.1v13.1Z"/><path fill="#FF003D" d="M456.5 322.398h-14.1v14.1h14.1v-14.1Z"/><path fill="#fff" d="M438.301 374.1h-15v-15h15v15Zm-14-1h13.1V360h-13.1v13.1ZM475.502 374.1h-15v-15h15v15Zm-14.1-1h13.1V360h-13.1v13.1ZM456.9 374.1h-15v-15h15v15Zm-14-1H456V360h-13.1v13.1ZM438.301 355.498h-15v-15h15v15Zm-14-1h13.1v-13.1h-13.1v13.1ZM475.502 355.498h-15v-15h15v15Zm-14.1-1h13.1v-13.1h-13.1v13.1Z"/><path fill="#5218FA" d="M456.5 340.998h-14.1v14.1h14.1v-14.1Z"/><path fill="#000" d="M696.9 201.1h-93.4v93.4h93.4v-93.4Z"/><path fill="#FBBE28" d="M670 236.699c0-4.8-3.9-8.7-8.7-8.7h-8.7v-8.7h8.7c3.2 0 6.1.8 8.7 2.3 2.6 1.5 4.8 3.7 6.3 6.3 1.5 2.5 2.3 5.5 2.3 8.7v8.7H670v-8.6Z"/><path fill="#F4F1EB" d="M639.201 228c-4.8 0-8.7 3.9-8.7 8.7v8.7h-8.7v-8.7c0-3.2.8-6.1 2.3-8.7 1.5-2.6 3.7-4.8 6.3-6.3 2.5-1.5 5.5-2.3 8.7-2.3h8.7v8.7h-8.6v-.1Z"/><path fill="#fff" d="M661.401 276.699h-9.1v-9.6h9.1c2.2 0 4.2-.9 5.8-2.4 1.5-1.5 2.4-3.6 2.4-5.8v-9.1h9.6v9.1c0 3.1-.8 6.2-2.4 8.9-1.6 2.7-3.8 5-6.5 6.5-2.7 1.6-5.8 2.4-8.9 2.4Zm-8.2-.9h8.2c3 0 5.9-.8 8.4-2.3 2.6-1.5 4.7-3.6 6.2-6.2s2.3-5.5 2.3-8.4v-8.2h-7.7v8.2c0 5-4.1 9.1-9.1 9.1h-8.2v7.8h-.1Z"/><path fill="#F4F1EB" d="M797.4 201.1H704v93.4h93.4v-93.4Z"/><path fill="#FF003D" d="M750.7 280.2c-2.6 0-4.7-2.1-4.7-4.7v-21.6h9.4v21.6c0 2.6-2.1 4.7-4.7 4.7Zm-3.7-25.3v20.6c0 2.1 1.7 3.7 3.7 3.7 2.1 0 3.7-1.7 3.7-3.7v-20.6H747Z"/><path fill="#FF003D" d="M734.4 274.9c-1 0-1.901-.3-2.801-.9-1-.7-1.7-1.8-1.9-3.1-.2-1.2.1-2.5.8-3.5l12.7-17.5 7.6 5.5-12.6 17.6c-.9 1.3-2.299 1.9-3.799 1.9Zm9.099-23.6L731.4 268c-.6.8-.801 1.8-.701 2.8.2 1 .7 1.9 1.5 2.4.8.6 1.8.8 2.8.7 1-.2 1.901-.7 2.401-1.5l12.099-16.7-6-4.4Z"/><path fill="#FF003D" d="M724.4 261.099c-2 0-3.8-1.3-4.5-3.2-.8-2.5.6-5.1 3-5.9l20.5-6.7 2.9 8.9-20.5 6.7c-.5.1-.9.2-1.4.2Zm-3.6-3.6c.6 2 2.8 3 4.7 2.4l19.6-6.4-2.3-7.1-19.6 6.4c-1.9.6-3 2.8-2.4 4.7Z"/><path fill="#FF003D" d="m743.5 250.401-20.5-6.7c-1.2-.4-2.2-1.2-2.7-2.3-.6-1.1-.7-2.4-.3-3.6.4-1.2 1.2-2.2 2.3-2.7 1.1-.6 2.4-.7 3.6-.3l20.5 6.7-2.9 8.9Zm-19.1-14.9c-.6 0-1.2.1-1.7.4-.9.5-1.6 1.2-1.9 2.2-.3 1-.2 2 .2 2.9.4.9 1.2 1.6 2.2 1.9l19.6 6.4 2.3-7.1-19.6-6.4c-.3-.3-.7-.3-1.1-.3Z"/><path fill="#FF003D" d="m743.3 245.6-12.7-17.5c-1.5-2.1-1.1-5 1-6.6 2.1-1.5 5-1.1 6.6 1l12.7 17.5-7.6 5.6Zm-8.9-24c-.8 0-1.5.2-2.2.7-1.7 1.2-2 3.6-.8 5.2l12.1 16.7 6.1-4.4-12.1-16.7c-.7-.9-1.9-1.5-3.1-1.5Z"/><path fill="#FF003D" d="M755.4 241.7H746v-21.6c0-2.6 2.1-4.7 4.7-4.7s4.7 2.1 4.7 4.7v21.6Zm-8.4-1h7.5v-20.6c0-2.1-1.7-3.7-3.7-3.7s-3.7 1.7-3.7 3.7v20.6h-.1Z"/><path fill="#5218FA" d="M769.499 221.999c-1.9-1.4-4.5-1-5.9.9l-12.4 17.1 6.8 5 12.4-17.1c1.4-1.9 1-4.6-.9-5.9Z"/><path fill="#FF003D" d="m758 250.401-2.9-8.9 20.5-6.7c1.2-.4 2.5-.3 3.6.3s1.9 1.5 2.3 2.7c.4 1.2.3 2.5-.3 3.6s-1.5 1.9-2.7 2.3l-20.5 6.7Zm-1.7-8.3 2.3 7.1 19.6-6.4c1-.3 1.7-1 2.2-1.9.5-.9.5-1.9.2-2.9s-1-1.7-1.9-2.2c-.9-.5-1.9-.5-2.9-.2l-19.5 6.5Z"/><path fill="#FF003D" d="M777.099 261.099c-.5 0-1-.1-1.4-.2l-20.5-6.7 2.9-8.9 20.5 6.7c1.2.4 2.2 1.2 2.7 2.3.6 1.1.7 2.4.3 3.6-.7 1.9-2.5 3.2-4.5 3.2Zm-20.8-7.5 19.6 6.4c2 .6 4.1-.4 4.7-2.4.3-1 .2-2-.2-2.9-.5-.9-1.2-1.6-2.2-1.9l-19.6-6.4-2.3 7.2Z"/><path fill="#FF003D" d="M767.1 274.9c-1.5 0-2.9-.7-3.8-1.9l-12.7-17.5 7.6-5.5 12.7 17.5c1.5 2.1 1.1 5-1 6.6-.9.5-1.9.8-2.8.8Zm-15.2-19.2 12.1 16.7c1.2 1.7 3.6 2 5.2.8 1.7-1.2 2-3.6.8-5.2l-12.1-16.7-6 4.4ZM496 201.1h-93.4v93.4H496v-93.4Z"/><path fill="#fff" d="M449.299 285.299c-5.1 0-9.8-2-13.4-5.6-3.6-3.6-5.6-8.3-5.6-13.4s2-9.8 5.6-13.4c3.6-3.6 8.3-5.6 13.4-5.6s9.8 2 13.4 5.6c3.6 3.6 5.6 8.3 5.6 13.4s-2 9.8-5.6 13.4c-3.6 3.7-8.4 5.6-13.4 5.6Zm0-37.1c-10 0-18.1 8.1-18.1 18.1 0 10 8.1 18.1 18.1 18.1 10 0 18.1-8.1 18.1-18.1 0-10-8.1-18.1-18.1-18.1Z"/><path fill="#fff" d="M449.3 285.3c-5.1 0-10-1-14.6-2.9-4.5-1.9-8.5-4.6-11.9-8-3.4-3.4-6.2-7.5-8-11.9-2-4.6-2.9-9.5-2.9-14.6s1-10 2.9-14.6c1.9-4.5 4.6-8.5 8-11.9 3.4-3.4 7.5-6.2 11.9-8 4.6-2 9.5-2.9 14.6-2.9s10 1 14.6 2.9c4.5 1.9 8.5 4.6 11.9 8 3.4 3.4 6.2 7.5 8 11.9 2 4.6 2.9 9.5 2.9 14.6s-1 10-2.9 14.6c-1.9 4.5-4.6 8.5-8 11.9-3.4 3.4-7.5 6.2-11.9 8-4.6 1.9-9.6 2.9-14.6 2.9Zm0-74.2c-20.2 0-36.7 16.5-36.7 36.7 0 20.2 16.5 36.7 36.7 36.7 20.2 0 36.7-16.5 36.7-36.7 0-20.2-16.5-36.7-36.7-36.7Z"/><path fill="#5218FA" d="M449.3 285.8c-7.7 0-14.9-3-20.3-8.4s-8.4-12.6-8.4-20.3c0-7.7 3-14.9 8.4-20.3s12.6-8.4 20.3-8.4c7.7 0 14.9 3 20.3 8.4s8.4 12.6 8.4 20.3c0 7.7-3 14.9-8.4 20.3s-12.7 8.4-20.3 8.4Zm0-56.5c-7.4 0-14.4 2.9-19.6 8.1-5.2 5.2-8.1 12.2-8.1 19.6 0 7.4 2.9 14.4 8.1 19.6 5.2 5.2 12.2 8.1 19.6 8.1 7.4 0 14.4-2.9 19.6-8.1 5.2-5.2 8.1-12.2 8.1-19.6 0-7.4-2.9-14.4-8.1-19.6-5.2-5.2-12.2-8.1-19.6-8.1Z"/><path fill="#5218FA" d="M449.3 285.3a9.7 9.7 0 0 0 9.7-9.7c0-5.357-4.343-9.7-9.7-9.7a9.7 9.7 0 0 0-9.7 9.7c0 5.358 4.342 9.7 9.7 9.7Z"/><path fill="#FF003D" d="M698.101 301.299h-93.4v93.4h93.4v-93.4Z"/><path fill="#fff" d="M647.701 351.799c-2.7-2.7-6.2-4.1-9.9-4.1s-7.3 1.5-9.9 4.1c-1 1-1.9 2.2-2.5 3.4-.1.3-.3.6-.4.8-.8 1.8-1.2 3.7-1.2 5.7 0 1.4.2 2.7.6 4 .1-.3.3-.6.4-.8-.3-1-.4-2.1-.4-3.2 0-1.7.3-3.3.9-4.8.1-.3.2-.6.4-.9 2.1-4.6 6.8-7.8 12.2-7.8 7.4 0 13.5 6 13.5 13.5 0 5.4-3.2 10.1-7.8 12.2-.3.1-.6.3-.9.4-1.5.6-3.1.9-4.8.9-1.1 0-2.2-.1-3.2-.4-.3.2-.5.3-.8.4 1.3.4 2.7.6 4 .6 2 0 3.9-.4 5.7-1.2.3-.1.6-.3.8-.4 1.2-.7 2.4-1.5 3.4-2.5 2.7-2.7 4.1-6.2 4.1-9.9-.1-3.8-1.6-7.3-4.2-10Z"/><path fill="#fff" d="M677.101 337.1c-1.4-3.3-3.4-6.3-6-8.8-2.6-2.6-5.5-4.6-8.8-6-3.4-1.5-7.1-2.2-10.8-2.2-3.7 0-7.4.7-10.8 2.2-3.3 1.4-6.3 3.4-8.8 6-2.6 2.6-4.6 5.5-6 8.8-1.5 3.4-2.2 7.1-2.2 10.8 0 2.8.4 5.5 1.2 8.1l.3.9c.2.6.4 1.2.7 1.8.5 1.2 1.1 2.3 1.7 3.4l.6-.3c-1.1-1.8-2-3.8-2.6-5.9l-.3-.9c-.6-2.3-1-4.7-1-7.2 0-15 12.2-27.2 27.2-27.2s27.2 12.2 27.2 27.2-12.2 27.2-27.2 27.2c-2.5 0-4.9-.3-7.2-1l-.9-.3c-2.1-.6-4-1.5-5.9-2.6l-.3.6c1.1.7 2.2 1.2 3.4 1.7.6.3 1.2.5 1.8.7l.9.3c2.6.8 5.3 1.2 8.1 1.2 3.8 0 7.4-.7 10.8-2.2 3.3-1.4 6.3-3.4 8.8-6 2.6-2.6 4.6-5.5 6-8.8 1.5-3.4 2.2-7.1 2.2-10.8 0-3.7-.6-7.2-2.1-10.7Z"/><path fill="#fff" d="M659.401 339.998c-4-4-9.2-6.1-14.8-6.1-5.6 0-10.9 2.2-14.8 6.1-4 4-6.1 9.2-6.1 14.8 0 3.1.7 6.1 1.9 8.8l.5-.5c-1.2-2.6-1.8-5.4-1.8-8.4 0-11.2 9.1-20.3 20.3-20.3 11.2 0 20.3 9.1 20.3 20.3 0 11.2-9.1 20.3-20.3 20.3-3 0-5.8-.6-8.4-1.8-.1.2-.3.3-.5.5 2.7 1.3 5.7 1.9 8.8 1.9 5.6 0 10.9-2.2 14.8-6.1 4-4 6.1-9.2 6.1-14.8.1-5.4-2-10.7-6-14.7Z"/><path fill="#000" d="M627.801 371.699c1.7 1.7 3.7 2.9 5.9 3.5-.9.4-1.8.6-2.8.6-4 0-7.2-3.2-7.2-7.2 0-1 .2-2 .6-2.8.6 2.2 1.8 4.2 3.5 5.9Z"/><path fill="#000" d="M635.702 373.899c-.4.4-.8.7-1.3.9-4.8-1.2-8.7-5-9.8-9.8.3-.5.6-.9.9-1.3 1 2.2 2.4 4.2 4.2 6 1.8 1.7 3.9 3.1 6 4.2Z"/><path fill="#000" d="M631.802 367.699c1.6 1.6 3.5 3.1 5.4 4.2-.3.5-.6 1-1 1.5-4.5-2-8.1-5.7-10.1-10.1.5-.4 1-.7 1.5-1 1.1 1.9 2.5 3.7 4.2 5.4Z"/><path fill="#000" d="M638.002 368.598c0 1-.2 1.9-.5 2.7-3.8-2.3-7.1-5.5-9.4-9.4.8-.3 1.7-.5 2.7-.5 4 0 7.2 3.3 7.2 7.2Z"/><path fill="#5218FA" d="M596.4 201.1H503v93.4h93.4v-93.4Z"/><path fill="#FF003D" d="m562.9 255-13.8-13.8 13.8-13.8 13.8 13.8-13.8 13.8Zm-12.5-13.8 12.5 12.5 12.5-12.5-12.5-12.5-12.5 12.5Z"/><path fill="#FF003D" d="m549.733 267.539 13.152-13.152-13.152-13.152-13.152 13.152 13.152 13.152Z"/><path fill="#FF003D" d="M549.8 268.2 536 254.4l13.8-13.8 13.8 13.8-13.8 13.8Zm-12.5-13.8 12.5 12.5 12.5-12.5-12.5-12.5-12.5 12.5Z"/><path fill="#FF003D" d="m536.601 255-13.8-13.8 13.8-13.8 13.8 13.8-13.8 13.8Zm-12.5-13.8 12.5 12.5 12.5-12.5-12.5-12.5-12.5 12.5Z"/><path fill="#F4F1EB" d="M395.701 301.4h-93.4v93.4h93.4v-93.4Z"/><path fill="#5218FA" d="m361.9 350 4.9 4.9 6.8-6.8-6.8-6.8-4.9 4.9h-4.2l-1.2-2.9 3-3h2.1c1.3 0 2.5-.5 3.4-1.4.9-.9 1.4-2.1 1.4-3.4 0-1.3-.5-2.5-1.4-3.4-.9-.9-2.1-1.4-3.4-1.4-1.3 0-2.5.5-3.4 1.4-.9.9-1.4 2.1-1.4 3.4v2.1l-3 3-2.9-1.2v-4.2l4.9-4.9-6.8-6.8-6.8 6.8 4.9 4.9v4.2l-2.9 1.2-3-3v-6.9h-9.6v9.6h6.9l3 3-1.2 2.9h-4.2l-4.9-4.9-6.8 6.8 6.8 6.8 4.9-4.9h4.2l1.2 2.9-3 3h-6.9v9.6h9.6v-6.9l3-3 2.9 1.2v4.2l-4.9 4.9 6.8 6.8 6.8-6.8-4.9-4.9v-4.2l2.9-1.2 3 3v6.9h9.6v-9.6h-6.9l-3-3 1.2-2.9h4.2Zm-6.3 3.1 3.6 3.6h6.5v7.9h-7.9v-6.5l-3.6-3.6-4 1.6v5.1l4.6 4.6-5.6 5.6-5.6-5.6 4.6-4.6v-5.1l-4-1.6-3.6 3.6v6.5h-7.9v-7.9h6.5l3.6-3.6-1.6-4h-5.1l-4.6 4.6-5.6-5.6 5.6-5.6 4.6 4.6h5.1l1.6-4-3.6-3.6h-6.5v-7.9h7.9v6.5l3.6 3.6 4-1.6V335l-4.6-4.6 5.6-5.6 5.6 5.6-4.6 4.6v5.1l4 1.6 3.6-3.6v-2.5c0-1.1.4-2.1 1.2-2.8.7-.7 1.7-1.2 2.8-1.2 1.1 0 2.1.4 2.8 1.2.7.7 1.2 1.7 1.2 2.8 0 1.1-.4 2.1-1.2 2.8-.8.8-1.7 1.2-2.8 1.2h-2.5l-3.6 3.6 1.6 4h5.1l4.6-4.6 5.6 5.6-5.6 5.6-4.6-4.6h-5.1l-1.7 3.9Z"/><path fill="#000" d="M349.102 352.6a4.5 4.5 0 1 0 0-9 4.5 4.5 0 0 0 0 9Z"/><path fill="#5218FA" d="M797.201 301.299h-93.4v93.4h93.4v-93.4Z"/><path fill="#fff" d="m746.201 324.8-.2-.3h-.2l-.3.5-4.1 7.1-.2.3.2.2 4 6.9.1.2.3.5h.2l.2-.3 4.4-7.5-4.4-7.6Z"/><path fill="#fff" d="m745.901 339.401-.1-.2-4-6.8 4-6.9.1-.2 4.1 7.1-4.1 7Z"/><path fill="#fff" d="m745.9 339.4-.1-.2-4-6.8-.1-.3h-9l-.2.3.2.2 4.3 7.6h9l.2-.3-.3-.5Z"/><path fill="#fff" d="m737.299 339.7-4.1-7.1h8.2l4 6.9.1.2h-8.2Z"/><path fill="#FBBE28" d="M746 324.5h-9l-4.3 7.6-.2.3.2.2h9l.1-.2 4-6.9.1-.2.3-.5-.2-.3Z"/><path fill="#FBBE28" d="m733.199 332.1 4.1-7.1h8.2l-4.1 7.1h-8.2Z"/><path fill="#fff" d="m755.199 340.4-.1-.3h-.3l-.3.5-4.1 7.1-.1.3.1.3 4 6.9.1.2.3.5h.3l.1-.3 4.4-7.6-4.4-7.6Zm-.3 14.6-.1-.2-4-6.9 4-6.9.1-.2 4.1 7.1-4.1 7.1Z"/><path fill="#fff" d="m754.9 355-.1-.2-4-6.9-.1-.3h-9l-.1.3.1.3 4.4 7.6h9l.1-.3-.3-.5Zm-8.6.3-4.1-7.1h8.1l4 6.9.1.2h-8.1Z"/><path fill="#fff" d="M755.1 340.199h-9l-4.4 7.6-.1.3.1.3h9l.1-.3 4-6.9.1-.2.3-.5-.1-.3Zm-12.8 7.5 4.1-7.1h8.1l-4.1 7.1h-8.1ZM737.201 340.4l-.1-.3h-.3l-.3.5-4.1 7.1-.1.3.1.3 4 6.9.1.2.3.5h.3l.1-.3 4.4-7.6-4.4-7.6Zm-.3 14.6-.1-.2-4-6.9 4-6.9.1-.2 4.1 7.1-4.1 7.1Z"/><path fill="#fff" d="m736.9 355-.1-.2-4-6.9-.1-.3h-9l-.1.3.1.3 4.4 7.6h9l.1-.3-.3-.5Zm-8.6.3-4.1-7.1h8.1l4 6.9.1.2h-8.1Z"/><path fill="#fff" d="M737 340.199h-9l-4.4 7.6-.1.3.1.3h9l.1-.3 4-6.9.1-.2.3-.5-.1-.3Zm-12.8 7.5 4.1-7.1h8.1l-4.1 7.1h-8.1ZM773.3 340.4l-.1-.3h-.3l-.3.5-4.1 7.1-.1.3.1.3 4 6.9.1.2.3.5h.3l.1-.3 4.4-7.6-4.4-7.6ZM773 355l-.1-.2-4-6.9 4-6.9.1-.2 4.1 7.1-4.1 7.1Z"/><path fill="#fff" d="m772.999 355-.1-.2-4-6.9-.1-.3h-9l-.1.3.1.3 4.4 7.6h9l.1-.3-.3-.5Zm-8.6.3-4.1-7.1h8.1l4 6.9.1.2h-8.1Z"/><path fill="#fff" d="M773.1 340.199h-9l-4.4 7.6-.1.3.1.3h9l.1-.3 4-6.9.1-.2.3-.5-.1-.3Zm-12.8 7.5 4.1-7.1h8.1l-4.1 7.1h-8.1Z"/><path fill="#fff" d="m764.199 324.8-.1-.3h-.3l-.3.5-4.1 7.1-.1.3.1.3 4 6.9.1.2.3.5h.3l.1-.3 4.4-7.6-4.4-7.6Zm-.3 14.6-.1-.2-4-6.9 4-6.9.1-.2 4.1 7.1-4.1 7.1Z"/><path fill="#fff" d="m763.9 339.4-.1-.2-4-6.9-.1-.3h-9l-.1.3.1.3 4.4 7.6h9l.1-.3-.3-.5Zm-8.5.3-4.1-7.1h8.1l4 6.9.1.2h-8.1Z"/><path fill="#fff" d="M764.1 324.5h-9l-4.4 7.6-.1.3.1.3h9l.1-.3 4-6.9.1-.2.3-.5-.1-.3Zm-12.8 7.6 4.1-7.1h8.1l-4.1 7.1h-8.1ZM746.201 355.999l-.1-.3h-.3l-.3.5-4.1 7.1-.1.3.1.3 4 6.9.1.2.3.5h.3l.1-.3 4.4-7.6-4.4-7.6Zm-.3 14.7-.1-.2-4-6.9 4-6.9.1-.2 4.1 7.1-4.1 7.1Z"/><path fill="#fff" d="m745.9 370.699-.1-.2-4-6.9-.1-.3h-9l-.1.3.1.3 4.4 7.6h9l.1-.3-.3-.5Zm-8.6.2-4.1-7.1h8.1l4 6.9.1.2h-8.1Z"/><path fill="#fff" d="M746 355.799h-9l-4.4 7.6-.1.3.1.3h9l.1-.3 4-6.9.1-.2.3-.5-.1-.3Zm-12.8 7.6 4.1-7.1h8.1l-4.1 7.1h-8.1ZM764.199 355.999l-.1-.3h-.3l-.3.5-4.1 7.1-.1.3.1.3 4 6.9.1.2.3.5h.3l.1-.3 4.4-7.6-4.4-7.6Zm-.3 14.7-.1-.2-4-6.9 4-6.9.1-.2 4.1 7.1-4.1 7.1Z"/><path fill="#fff" d="m763.9 370.699-.1-.2-4-6.9-.1-.3h-9l-.1.3.1.3 4.4 7.6h9l.1-.3-.3-.5Zm-8.5.2-4.1-7.1h8.1l4 6.9.1.2h-8.1Z"/><path fill="#fff" d="M764.1 355.799h-9l-4.4 7.6-.1.3.1.3h9l.1-.3 4-6.9.1-.2.3-.5-.1-.3Zm-12.8 7.6 4.1-7.1h8.1l-4.1 7.1h-8.1Z"/><path fill="#FBBE28" d="M596.4 301.299H503v93.4h93.4v-93.4Z"/><path fill="#5218FA" d="m573.201 346.1-2.8-8.8-16 5.1v-16.7l-9.3-.1v16.8l-15.9-5.2-2.9 8.9 16 5.2-9.9 13.6 7.5 5.4 9.9-13.6 9.8 13.6 7.5-5.4-9.8-13.6 15.9-5.2Z"/><path fill="#FBBE28" d="M395.5 201.1h-93.4v93.4h93.4v-93.4Z"/><path fill="#FF003D" d="M348.8 261.699c7.842 0 14.2-6.358 14.2-14.2 0-7.843-6.358-14.2-14.2-14.2-7.843 0-14.2 6.357-14.2 14.2 0 7.842 6.357 14.2 14.2 14.2Z"/><path fill="#000" d="M387.2 247.199c-.2-.2-.4-.3-.6-.5-5.1-4.4-11-7.8-17.3-10.2-6.5-2.5-13.4-3.7-20.4-3.7h-.4c-7 0-13.9 1.3-20.4 3.7-6.3 2.4-12.1 5.8-17.3 10.2-.2.2-.4.3-.6.5h-8.3v1.3h8.3c.2.2.4.3.6.5 6.6 5.6 14.5 9.8 22.8 12l.5.1c4.7 1.2 9.7 1.8 14.6 1.8s9.9-.6 14.6-1.8l.5-.1c8.3-2.2 16.2-6.4 22.8-12 .2-.2.4-.3.6-.5h8.3v-1.3h-8.3Zm-24.6 1.1v.1c0 .3 0 .7-.1 1v.6c-1 6.6-6.8 11.7-13.6 11.7-7.1 0-13-5.4-13.7-12.3v-1.4c0-7.6 6.2-13.8 13.8-13.8 7.6 0 13.8 6.2 13.8 13.8-.2 0-.2.1-.2.3Zm-50.9-.3-.2-.2.2-.2c8.5-7.3 19-11.8 30.1-13.2-4.8 2.5-8.1 7.6-8.1 13.4v11.8c-8-2.2-15.6-6.2-22-11.6Zm74.1 0c-6.4 5.4-13.9 9.4-22 11.6v-11.8c0-5.8-3.3-10.8-8.1-13.4 11.1 1.4 21.5 5.9 30.1 13.2l.2.2c0 .1-.1.1-.2.2ZM996.599 301.1h-93.4v93.4h93.4v-93.4Z"/><path fill="#FBBE28" d="M938.498 322.299h-14.1v14.1h14.1v-14.1Z"/><path fill="#fff" d="M976 336.799h-15v-15h15v15Zm-14-1h13.1v-13.1H962v13.1Z"/><path fill="#FF003D" d="M956.998 322.299h-14.1v14.1h14.1v-14.1Z"/><path fill="#fff" d="M938.898 373.9h-15v-15h15v15Zm-14.1-.9h13.1v-13.1h-13.1V373ZM976 373.9h-15v-15h15v15Zm-14-.9h13.1v-13.1H962V373ZM957.5 373.9h-15v-15h15v15Zm-14.1-.9h13.1v-13.1h-13.1V373ZM938.898 355.4h-15v-15h15v15Zm-14.1-1h13.1v-13.1h-13.1v13.1ZM976 355.4h-15v-15h15v15Zm-14-1h13.1v-13.1H962v13.1Z"/><path fill="#5218FA" d="M956.998 340.799h-14.1v14.1h14.1v-14.1Z"/><path fill="#000" d="M196.4 201.4H103v93.4h93.4v-93.4Z"/><path fill="#FBBE28" d="M169.5 237.099c0-4.8-3.9-8.7-8.7-8.7h-8.7v-8.7h8.7c3.2 0 6.1.8 8.7 2.3 2.6 1.5 4.8 3.7 6.3 6.3 1.5 2.5 2.3 5.5 2.3 8.7v8.7h-8.7v-8.6h.1Z"/><path fill="#F4F1EB" d="M138.599 228.401c-4.8 0-8.7 3.9-8.7 8.7v8.7h-8.7v-8.7c0-3.2.8-6.1 2.3-8.7 1.5-2.6 3.7-4.8 6.3-6.3 2.5-1.5 5.5-2.3 8.7-2.3h8.7v8.7h-8.6v-.1Z"/><path fill="#fff" d="M160.799 277.099h-9.1v-9.6h9.1c2.2 0 4.2-.9 5.8-2.4 1.5-1.5 2.4-3.6 2.4-5.8v-9.1h9.6v9.1c0 3.1-.8 6.2-2.4 8.9-1.6 2.7-3.8 5-6.5 6.5-2.7 1.6-5.8 2.4-8.9 2.4Zm-8.2-1h8.2c3 0 5.9-.8 8.4-2.3 2.6-1.5 4.7-3.6 6.2-6.2s2.3-5.5 2.3-8.4v-8.2h-7.7v8.2c0 5-4.1 9.1-9.1 9.1h-8.2v7.8h-.1Z"/><path fill="#F4F1EB" d="M296.9 201.4h-93.4v93.4h93.4v-93.4Z"/><path fill="#FF003D" d="M250.2 280.601c-2.6 0-4.7-2.1-4.7-4.7v-21.6h9.4v21.6c0 2.6-2.1 4.7-4.7 4.7Zm-3.8-25.3v20.6c0 2.1 1.7 3.7 3.7 3.7 2.1 0 3.7-1.7 3.7-3.7v-20.6h-7.4Z"/><path fill="#FF003D" d="M233.899 275.301c-1 0-1.899-.3-2.799-.9-1-.7-1.701-1.8-1.901-3.1-.2-1.2.1-2.5.8-3.5l12.701-17.5 7.599 5.5-12.699 17.5c-.8 1.3-2.301 2-3.701 2Zm9.1-23.6-12.1 16.7c-.6.8-.8 1.8-.7 2.8.2 1 .7 1.9 1.5 2.4.8.6 1.8.8 2.8.7 1-.2 1.9-.7 2.4-1.5l12.101-16.7-6.001-4.4Z"/><path fill="#FF003D" d="M223.8 261.4c-2 0-3.8-1.3-4.5-3.2-.8-2.5.6-5.1 3-5.9l20.5-6.7 2.9 8.9-20.5 6.7c-.4.2-.9.2-1.4.2Zm-3.5-3.5c.6 2 2.8 3 4.7 2.4l19.6-6.4-2.3-7.1-19.6 6.4c-2 .6-3.1 2.7-2.4 4.7Z"/><path fill="#FF003D" d="m242.9 250.701-20.5-6.7c-1.2-.4-2.2-1.2-2.7-2.3-.6-1.1-.7-2.4-.3-3.6.4-1.2 1.2-2.2 2.3-2.7 1.1-.6 2.4-.7 3.6-.3l20.5 6.7-2.9 8.9Zm-19.1-14.8c-.6 0-1.2.1-1.7.4-.9.5-1.6 1.2-1.9 2.2-.3 1-.2 2 .2 2.9.5.9 1.2 1.6 2.2 1.9l19.6 6.4 2.3-7.1-19.5-6.6c-.4-.1-.8-.1-1.2-.1Z"/><path fill="#FF003D" d="m242.8 246.001-12.7-17.5c-1.5-2.1-1.1-5 1-6.6 2.1-1.5 5-1.1 6.6 1l12.7 17.5-7.6 5.6Zm-8.9-24c-.8 0-1.5.2-2.2.7-1.7 1.2-2 3.6-.8 5.2l12.1 16.7 6.1-4.4-12.1-16.7c-.8-1-1.9-1.5-3.1-1.5Z"/><path fill="#FF003D" d="M254.9 242.001h-9.4v-21.6c0-2.6 2.1-4.7 4.7-4.7s4.7 2.1 4.7 4.7v21.6Zm-8.5-.9h7.5v-20.6c0-2.1-1.7-3.7-3.7-3.7s-3.7 1.7-3.7 3.7v20.6h-.1Z"/><path fill="#5218FA" d="M268.999 222.3c-1.9-1.4-4.5-1-5.9.9l-12.4 17.1 6.8 5 12.4-17.1c1.4-1.9 1-4.5-.9-5.9Z"/><path fill="#FF003D" d="m257.5 250.701-2.9-8.9 20.5-6.7c1.2-.4 2.5-.3 3.6.3s1.9 1.5 2.3 2.7c.4 1.2.3 2.5-.3 3.6s-1.5 1.9-2.7 2.3l-20.5 6.7Zm-1.7-8.3 2.3 7.1 19.6-6.4c1-.3 1.7-1 2.2-1.9.5-.9.5-1.9.2-2.9s-1-1.7-1.9-2.2c-.9-.5-1.9-.5-2.9-.2l-19.5 6.5Z"/><path fill="#FF003D" d="M276.599 261.4c-.5 0-1-.1-1.4-.2l-20.5-6.7 2.9-8.9 20.5 6.7c1.2.4 2.2 1.2 2.7 2.3.6 1.1.7 2.4.3 3.6-.7 2-2.6 3.2-4.5 3.2Zm-20.8-7.5 19.6 6.4c2 .6 4.1-.4 4.7-2.4.3-1 .2-2-.2-2.9-.5-.9-1.2-1.6-2.2-1.9l-19.6-6.4-2.3 7.2Z"/><path fill="#FF003D" d="M266.5 275.3c-1.5 0-2.9-.7-3.8-1.9L250 255.9l7.6-5.5 12.7 17.5c1.5 2.1 1.1 5-1 6.6-.9.5-1.8.8-2.8.8Zm-15.2-19.2 12.1 16.7c1.2 1.7 3.6 2 5.2.8 1.7-1.2 2-3.6.8-5.2l-12.1-16.7-6 4.4ZM996.5 201h-93.4v93.4h93.4V201Z"/><path fill="#fff" d="M949.799 285.199c-5.1 0-9.8-2-13.4-5.6-3.6-3.6-5.6-8.3-5.6-13.4s2-9.8 5.6-13.4c3.6-3.6 8.3-5.6 13.4-5.6s9.8 2 13.4 5.6c3.6 3.6 5.6 8.3 5.6 13.4s-2 9.8-5.6 13.4c-3.5 3.6-8.3 5.6-13.4 5.6Zm0-37.1c-10 0-18.1 8.1-18.1 18.1 0 10 8.1 18.1 18.1 18.1 10 0 18.1-8.1 18.1-18.1.1-10-8.1-18.1-18.1-18.1Z"/><path fill="#fff" d="M949.8 285.2c-5.1 0-10-1-14.6-2.9-4.5-1.9-8.5-4.6-11.9-8-3.4-3.4-6.2-7.5-8-11.9-2-4.6-2.9-9.5-2.9-14.6s1-10 2.9-14.6c1.9-4.5 4.6-8.5 8-11.9 3.4-3.4 7.5-6.2 11.9-8 4.6-2 9.5-2.9 14.6-2.9s10 1 14.6 2.9c4.5 1.9 8.5 4.6 11.9 8 3.4 3.4 6.2 7.5 8 11.9 2 4.6 2.9 9.5 2.9 14.6s-1 10-2.9 14.6c-1.9 4.5-4.6 8.5-8 11.9-3.4 3.4-7.5 6.2-11.9 8-4.6 1.9-9.5 2.9-14.6 2.9Zm0-74.2c-20.2 0-36.7 16.5-36.7 36.7 0 20.2 16.5 36.7 36.7 36.7 20.2 0 36.7-16.5 36.7-36.7 0-20.3-16.4-36.7-36.7-36.7Z"/><path fill="#5218FA" d="M949.8 285.701c-7.7 0-14.9-3-20.3-8.4s-8.4-12.6-8.4-20.3c0-7.7 3-14.9 8.4-20.3s12.6-8.4 20.3-8.4c7.7 0 14.9 3 20.3 8.4s8.4 12.6 8.4 20.3c0 7.7-3 14.9-8.4 20.3s-12.6 8.4-20.3 8.4Zm0-56.5c-7.4 0-14.4 2.9-19.6 8.1-5.2 5.2-8.1 12.2-8.1 19.6 0 7.4 2.9 14.4 8.1 19.6 5.2 5.2 12.2 8.1 19.6 8.1 7.4 0 14.4-2.9 19.6-8.1 5.2-5.2 8.1-12.2 8.1-19.6 0-7.4-2.9-14.4-8.1-19.6-5.2-5.2-12.2-8.1-19.6-8.1Z"/><path fill="#5218FA" d="M949.8 285.201c5.357 0 9.7-4.343 9.7-9.7 0-5.357-4.343-9.7-9.7-9.7a9.7 9.7 0 0 0-9.7 9.7 9.7 9.7 0 0 0 9.7 9.7Z"/><path fill="#FF003D" d="M197.599 301.6h-93.4V395h93.4v-93.4Z"/><path fill="#fff" d="M147.099 352.2c-2.7-2.7-6.2-4.1-9.9-4.1-3.8 0-7.3 1.5-9.9 4.1-1 1-1.9 2.2-2.5 3.4-.1.3-.3.6-.4.8-.8 1.8-1.2 3.7-1.2 5.7 0 1.4.2 2.7.6 4 .1-.3.3-.6.4-.8-.3-1-.4-2.1-.4-3.2 0-1.7.3-3.3.9-4.8.1-.3.2-.6.4-.9 2.1-4.6 6.8-7.8 12.2-7.8 7.4 0 13.5 6 13.5 13.5 0 5.4-3.2 10.1-7.8 12.2-.3.1-.6.3-.9.4-1.5.6-3.1.9-4.8.9-1.1 0-2.2-.1-3.2-.4-.3.2-.5.3-.8.4 1.3.4 2.7.6 4 .6 2 0 3.9-.4 5.7-1.2.3-.1.6-.3.8-.4 1.2-.7 2.4-1.5 3.4-2.5 2.7-2.7 4.1-6.2 4.1-9.9-.1-3.8-1.5-7.4-4.2-10Z"/><path fill="#fff" d="M176.599 337.5c-1.4-3.3-3.4-6.3-6-8.8-2.6-2.6-5.5-4.6-8.8-6-3.4-1.5-7.1-2.2-10.8-2.2-3.8 0-7.4.7-10.8 2.2-3.3 1.4-6.3 3.4-8.8 6-2.6 2.6-4.6 5.5-6 8.8-1.5 3.4-2.2 7.1-2.2 10.8 0 2.8.4 5.5 1.2 8.1l.3.9c.2.6.4 1.2.7 1.8.5 1.2 1.1 2.3 1.7 3.4l.6-.3c-1.1-1.8-2-3.8-2.6-5.9l-.3-.9c-.6-2.3-1-4.7-1-7.2 0-15 12.2-27.2 27.2-27.2s27.2 12.2 27.2 27.2-12.2 27.2-27.2 27.2c-2.5 0-4.9-.3-7.2-1l-.9-.3c-2.1-.6-4-1.5-5.9-2.6l-.3.6c1.1.7 2.2 1.2 3.4 1.7.6.3 1.2.5 1.8.7l.9.3c2.6.8 5.3 1.2 8.1 1.2 3.8 0 7.4-.7 10.8-2.2 3.3-1.4 6.3-3.4 8.8-6 2.6-2.6 4.6-5.5 6-8.8 1.5-3.4 2.2-7.1 2.2-10.8 0-3.7-.7-7.3-2.1-10.7Z"/><path fill="#fff" d="M158.899 340.399c-4-4-9.2-6.1-14.8-6.1-5.6 0-10.9 2.2-14.8 6.1-4 4-6.1 9.2-6.1 14.8 0 3.1.7 6.1 1.9 8.8l.5-.5c-1.2-2.6-1.8-5.4-1.8-8.4 0-11.2 9.1-20.3 20.3-20.3 11.2 0 20.3 9.1 20.3 20.3 0 11.2-9.1 20.3-20.3 20.3-3 0-5.8-.6-8.4-1.8-.1.2-.3.3-.5.5 2.7 1.3 5.7 1.9 8.8 1.9 5.6 0 10.9-2.2 14.8-6.1 4-4 6.1-9.2 6.1-14.8.1-5.5-2.1-10.7-6-14.7Z"/><path fill="#000" d="M127.2 372.099c1.7 1.7 3.7 2.9 5.9 3.5-.9.4-1.8.6-2.8.6-4 0-7.2-3.2-7.2-7.2 0-1 .2-2 .6-2.8.6 2.2 1.8 4.2 3.5 5.9Z"/><path fill="#000" d="M135.2 374.198c-.4.4-.8.7-1.3.9-4.8-1.2-8.7-5-9.8-9.8.3-.5.6-.9.9-1.3 1 2.2 2.4 4.2 4.2 6 1.8 1.8 3.8 3.2 6 4.2Z"/><path fill="#000" d="M131.2 368c1.6 1.6 3.5 3.1 5.4 4.2-.3.5-.6 1-1 1.5-4.5-2-8.1-5.7-10.1-10.1.5-.4 1-.7 1.5-1 1.2 2 2.6 3.8 4.2 5.4Z"/><path fill="#000" d="M137.5 368.999c0 1-.2 1.9-.5 2.7-3.8-2.3-7.1-5.5-9.4-9.4.8-.3 1.7-.5 2.7-.5 3.9 0 7.2 3.2 7.2 7.2Z"/><path fill="#5218FA" d="M95.9 201.4H2.5v93.4h93.4v-93.4Z"/><path fill="#FF003D" d="m62.4 255.401-13.8-13.8 13.8-13.8 13.8 13.8-13.8 13.8Zm-12.5-13.8 12.5 12.5 12.5-12.5-12.5-12.5-12.5 12.5Z"/><path fill="#FF003D" d="m49.188 267.855 13.152-13.152-13.152-13.152-13.152 13.152 13.152 13.152Z"/><path fill="#FF003D" d="m49.2 268.6-13.8-13.8L49.2 241 63 254.7l-13.8 13.9Zm-12.5-13.9 12.5 12.5 12.5-12.5-12.5-12.5-12.5 12.5ZM35.4 254.7l-13.8-13.8 13.8-13.8 13.8 13.8-13.8 13.8Zm-12.5-13.8 12.5 12.5 12.5-12.5-12.5-12.5-12.5 12.5Z"/><path fill="#F4F1EB" d="M896.3 301.301h-93.4v93.4h93.4v-93.4Z"/><path fill="#5218FA" d="m862.5 349.9 4.9 4.9 6.8-6.8-6.8-6.8-4.9 4.9h-4.2l-1.2-2.9 3-3h2.1c1.3 0 2.5-.5 3.4-1.4.9-.9 1.4-2.1 1.4-3.4 0-1.3-.5-2.5-1.4-3.4-.9-.9-2.1-1.4-3.4-1.4-1.3 0-2.5.5-3.4 1.4-.9.9-1.4 2.1-1.4 3.4v2.1l-3 3-2.9-1.2v-4.2l4.9-4.9-6.8-6.8-6.8 6.8 4.9 4.9v4.2l-2.9 1.2-3-3v-6.9h-9.6v9.6h6.9l3 3-1.2 2.9h-4.2l-4.9-4.9-6.8 6.8 6.8 6.8 4.9-4.9h4.2l1.2 2.9-3 3h-6.9v9.6h9.6v-6.9l3-3 2.9 1.2v4.2l-4.9 4.9 6.8 6.8 6.8-6.8-4.9-4.9v-4.2l2.9-1.2 3 3v6.9h9.6v-9.6h-7l-3-3 1.2-2.9h4.3Zm-6.4 3.1 3.6 3.6h6.5v7.9h-7.9V358l-3.6-3.6-4 1.6v5.1l4.6 4.6-5.6 5.6-5.6-5.6 4.6-4.6V356l-4-1.6-3.6 3.6v6.5h-7.9v-7.9h6.5l3.6-3.6-1.6-4h-5.1l-4.6 4.6-5.6-5.6 5.6-5.6 4.6 4.6h5.1l1.6-4-3.6-3.6h-6.5v-7.9h7.9v6.5l3.6 3.6 4-1.6v-5.1l-4.6-4.6 5.6-5.6 5.6 5.6-4.6 4.6v5.1l4 1.6 3.6-3.6v-2.5c0-1.1.4-2.1 1.2-2.8.7-.7 1.7-1.2 2.8-1.2 1.1 0 2.1.4 2.8 1.2.7.7 1.2 1.7 1.2 2.8 0 1.1-.4 2.1-1.2 2.8-.8.8-1.7 1.2-2.8 1.2h-2.5l-3.6 3.6 1.6 4h5.1l4.6-4.6 5.6 5.6-5.6 5.6-4.6-4.6h-5.1l-1.7 3.9Z"/><path fill="#000" d="M849.6 352.5a4.5 4.5 0 1 0 0-9 4.5 4.5 0 0 0 0 9Z"/><path fill="#5218FA" d="M296.701 301.6h-93.4V395h93.4v-93.4Z"/><path fill="#fff" d="m245.599 325.2-.1-.3h-.3l-.3.5-4.1 7.1-.1.2.1.3 4 6.8.1.2.3.5h.3l.1-.2 4.4-7.6-4.4-7.5Z"/><path fill="#fff" d="m245.299 339.801-.1-.2-3.9-6.9 3.9-6.8.1-.2 4.1 7-4.1 7.1Z"/><path fill="#fff" d="m245.3 339.8-.1-.2-3.9-6.9-.2-.2h-9l-.1.2.1.3 4.4 7.5h9l.1-.2-.3-.5Z"/><path fill="#fff" d="m236.799 340-4.1-7h8.1l4 6.8.1.2h-8.1Z"/><path fill="#FBBE28" d="M245.5 324.9h-9l-4.4 7.6-.1.2.1.3h9l.2-.3 3.9-6.8.1-.2.3-.5-.1-.3Z"/><path fill="#FBBE28" d="m232.699 332.5 4.1-7.1h8.1l-4.1 7.1h-8.1Z"/><path fill="#fff" d="m254.701 340.8-.1-.3h-.3l-.3.5-4.1 7.1-.1.3.1.3 4 6.9.1.2.3.5h.3l.1-.3 4.4-7.6-4.4-7.6Zm-.3 14.6-.1-.2-4-6.9 4-6.9.1-.2 4.1 7.1-4.1 7.1Z"/><path fill="#fff" d="m254.4 355.4-.1-.2-4-6.9-.1-.3h-9l-.1.3.1.3 4.4 7.6h9l.1-.3-.3-.5Zm-8.6.3-4.1-7.1h8.1l4 6.9.1.2h-8.1Z"/><path fill="#fff" d="M254.5 340.5h-9l-4.4 7.6-.1.3.1.3h9l.1-.3 4-6.9.1-.2.3-.5-.1-.3Zm-12.8 7.6 4.1-7.1h8.1l-4.1 7.1h-8.1ZM236.599 340.8l-.1-.3h-.3l-.3.5-4.1 7.1-.1.3.1.3 4 6.9.1.2.3.5h.3l.1-.3 4.4-7.6-4.4-7.6Zm-.3 14.6-.1-.2-4-6.9 4-6.9.1-.2 4.1 7.1-4.1 7.1Z"/><path fill="#fff" d="m236.3 355.4-.1-.2-4-6.9-.1-.3h-9l-.1.3.1.3 4.4 7.6h9l.1-.3-.3-.5Zm-8.6.3-4.1-7.1h8.1l4 6.9.1.2h-8.1Z"/><path fill="#fff" d="M236.5 340.5h-9l-4.4 7.6-.1.3.1.3h9l.1-.3 4-6.9.1-.2.3-.5-.1-.3Zm-12.8 7.6 4.1-7.1h8.1l-4.1 7.1h-8.1ZM272.699 340.8l-.1-.3h-.3l-.3.5-4.1 7.1-.1.3.1.3 4 6.9.1.2.3.5h.3l.1-.3 4.4-7.6-4.4-7.6Zm-.3 14.6-.1-.2-4-6.9 4-6.9.1-.2 4.1 7.1-4.1 7.1Z"/><path fill="#fff" d="m272.4 355.4-.1-.2-4-6.9-.1-.3h-9l-.1.3.1.3 4.4 7.6h9l.1-.3-.3-.5Zm-8.6.3-4.1-7.1h8.1l4 6.9.1.2h-8.1Z"/><path fill="#fff" d="M272.6 340.5h-9l-4.4 7.6-.1.3.1.3h9l.1-.3 4-6.9.1-.2.3-.5-.1-.3Zm-12.9 7.6 4.1-7.1h8.1l-4.1 7.1h-8.1Z"/><path fill="#fff" d="m263.701 325.2-.1-.3h-.3l-.3.5-4.1 7.1-.1.3.1.3 4 6.9.1.2.3.5h.3l.1-.3 4.4-7.6-4.4-7.6Zm-.3 14.6-.1-.2-4-6.9 4-6.9.1-.2 4.1 7.1-4.1 7.1Z"/><path fill="#fff" d="m263.4 339.8-.1-.2-4-6.9-.1-.3h-9l-.1.3.1.3 4.4 7.6h9l.1-.3-.3-.5Zm-8.6.2-4.1-7.1h8.1l4 6.9.1.2h-8.1Z"/><path fill="#fff" d="M263.5 324.9h-9l-4.4 7.6-.1.3.1.3h9l.1-.3 4-6.9.1-.2.3-.5-.1-.3Zm-12.8 7.6 4.1-7.1h8.1l-4.1 7.1h-8.1ZM245.599 356.4l-.1-.3h-.3l-.3.5-4.1 7.1-.1.3.1.3 4 6.9.1.2.3.5h.3l.1-.3 4.4-7.6-4.4-7.6Zm-.3 14.6-.1-.2-4-6.9 4-6.9.1-.2 4.1 7.1-4.1 7.1Z"/><path fill="#fff" d="m245.3 371-.1-.2-4-6.9-.1-.3h-9l-.1.4.1.3 4.4 7.6h9l.1-.3-.3-.6Zm-8.5.3-4.1-7.1h8.1l4 6.9.1.2h-8.1Z"/><path fill="#fff" d="M245.5 356.199h-9l-4.4 7.6-.1.2.1.3h9l.1-.3 4-6.9.1-.2.3-.5-.1-.2Zm-12.8 7.5 4.1-7.1h8.1l-4.1 7.1h-8.1ZM263.701 356.4l-.1-.3h-.3l-.3.5-4.1 7.1-.1.3.1.3 4 6.9.1.2.3.5h.3l.1-.3 4.4-7.6-4.4-7.6Zm-.3 14.6-.1-.2-4-6.9 4-6.9.1-.2 4.1 7.1-4.1 7.1Z"/><path fill="#fff" d="m263.4 371-.1-.2-4-6.9-.1-.3h-9l-.2.4.1.3 4.4 7.6h9l.1-.3-.2-.6Zm-8.6.3-4.1-7.1h8.1l4 6.9.1.2h-8.1Z"/><path fill="#fff" d="M263.5 356.199h-9l-4.4 7.6-.1.2.1.3h9l.1-.3 4-6.9.1-.2.3-.5-.1-.2Zm-12.8 7.5 4.1-7.1h8.1l-4.1 7.1h-8.1Z"/><path fill="#FBBE28" d="M95.9 301.6H2.5V395h93.4v-93.4Z"/><path fill="#5218FA" d="m72.7 346.5-2.9-8.9-15.9 5.2V326h-9.3v16.8l-16-5.2-2.9 8.8 16 5.2-9.9 13.6 7.5 5.5 9.9-13.6 9.9 13.6 7.5-5.5-9.9-13.6 16-5.1Z"/><path fill="#FBBE28" d="M896 201h-93.4v93.4H896V201Z"/><path fill="#FF003D" d="M849.3 261.5c7.842 0 14.2-6.358 14.2-14.2 0-7.843-6.358-14.2-14.2-14.2-7.843 0-14.2 6.357-14.2 14.2 0 7.842 6.357 14.2 14.2 14.2Z"/><path fill="#000" d="M887.8 247c-.2-.2-.4-.3-.6-.5-5.1-4.4-11-7.8-17.3-10.2-6.5-2.5-13.4-3.7-20.4-3.7h-.4c-7 0-13.9 1.3-20.4 3.7-6.3 2.4-12.1 5.8-17.3 10.2-.2.2-.4.3-.6.5h-8.3v1.3h8.3c.2.2.4.3.6.5 6.6 5.6 14.5 9.8 22.8 12l.5.1c4.7 1.2 9.7 1.8 14.6 1.8s9.9-.6 14.6-1.8l.5-.1c8.3-2.2 16.2-6.4 22.8-12 .2-.2.4-.3.6-.5h8.3V247h-8.3Zm-24.7 1.1v.1c0 .3 0 .7-.1 1v.6c-1 6.6-6.8 11.7-13.6 11.7-7.1 0-13-5.4-13.7-12.3v-1.4c0-7.6 6.2-13.8 13.8-13.8 7.6 0 13.8 6.2 13.8 13.8-.2 0-.2.2-.2.3Zm-50.8-.3-.2-.2.2-.2c8.5-7.3 19-11.8 30.1-13.2-4.8 2.5-8.1 7.6-8.1 13.4v11.8c-8.1-2.1-15.7-6.1-22-11.6Zm74.1 0c-6.4 5.4-13.9 9.4-22 11.6v-11.8c0-5.8-3.3-10.8-8.1-13.4 11.1 1.4 21.5 5.9 30.1 13.2l.2.2c-.1.1-.1.2-.2.2Z"/><path fill="#FBBE28" d="M120.365 125.811v10h10v-10h-10Z"/><path fill="#5218FA" d="M130.365 135.879v10h10v-10h-10Z"/><path fill="#FF003D" d="M130.4 125.844v10h10v-10h-10Z"/><path fill="#000" d="M266.7 145.899c-1.5-4.3-4.9-7.7-9.2-9.2-1.6-.6-3.3-.9-5-.9-1.8 0-3.4.3-5 .9v-10.9h-10v10h-10v-10h-20v10h10v12c-.3-.7-.6-1.4-1-2-1.8-3-4.3-5.6-7.3-7.3-3-1.7-6.4-2.7-10-2.7-3.7 0-7.1 1-10 2.7-3 1.8-5.6 4.3-7.3 7.3-.5.8-.9 1.6-1.2 2.5-.1-.9-.4-1.7-.6-2.5-1.5-4.3-4.9-7.7-9.2-9.2-1.6-.6-3.3-.9-5-.9-1.8 0-3.4.3-5 .9v-10.9h-10v10h-10v10h10v20.1c-5.5 0-10-4.5-10-10v-10h-10v10c0 3.7 1 7.1 2.7 10 1.8 3 4.3 5.6 7.3 7.3 3 1.7 6.4 2.7 10 2.7h10v-25.1c0-2.8 2.2-5 5-5 1 0 2 .3 2.8.9 1.3.9 2.2 2.4 2.2 4.2v25.2h10v-12c.3.7.6 1.4 1 2 1.8 3 4.3 5.6 7.3 7.3 3 1.7 6.4 2.7 10 2.7 3.7 0 7.1-1 10-2.7 3-1.8 5.6-4.3 7.3-7.3.8-1.3 1.4-2.8 1.8-4.3.5 1.5 1.1 2.9 1.8 4.3 1.8 3 4.3 5.6 7.3 7.3 3 1.7 6.4 2.7 10 2.7h10v-25.1c0-2.8 2.2-5 5-5 1 0 2 .3 2.8.9 1.3.9 2.2 2.4 2.2 4.2v25h10v-25.1c.1-1.8-.2-3.5-.7-5Zm-67.7 20c-5.5 0-10-4.5-10-10s4.5-10 10-10 10 4.5 10 10c0 5.6-4.5 10-10 10Zm38.4 0c-5.5 0-10-4.5-10-10v-10h10v20Z"/></g><defs><clipPath id="a"><path fill="#fff" d="M0 0h997v395H0z"/></clipPath></defs></svg>